<?xml version="1.0" encoding="UTF-8" standalone="no"?>
<!-- Created with Inkscape (http://www.inkscape.org/) -->

<svg
   width="3.3566406in"
   height="1.6070884in"
   viewBox="0 0 85.258675 40.820048"
   version="1.1"
   id="svg1"
   xml:space="preserve"
   sodipodi:docname="Logotipo.svg"
   inkscape:export-filename="Logotipo.svg"
   inkscape:export-xdpi="96"
   inkscape:export-ydpi="96"
   xmlns:inkscape="http://www.inkscape.org/namespaces/inkscape"
   xmlns:sodipodi="http://sodipodi.sourceforge.net/DTD/sodipodi-0.dtd"
   xmlns:xlink="http://www.w3.org/1999/xlink"
   xmlns="http://www.w3.org/2000/svg"
   xmlns:svg="http://www.w3.org/2000/svg"><sodipodi:namedview
     id="namedview1"
     pagecolor="#ffffff"
     bordercolor="#000000"
     borderopacity="0.25"
     inkscape:showpageshadow="2"
     inkscape:pageopacity="0.0"
     inkscape:pagecheckerboard="0"
     inkscape:deskcolor="#d1d1d1"
     inkscape:document-units="mm"
     inkscape:export-bgcolor="#ffffff00"
     inkscape:lockguides="false"
     inkscape:zoom="0.80965911"
     inkscape:cx="249.48771"
     inkscape:cy="209.34736"
     inkscape:window-width="1920"
     inkscape:window-height="1057"
     inkscape:window-x="1912"
     inkscape:window-y="38"
     inkscape:window-maximized="1"
     inkscape:current-layer="svg1"><inkscape:page
       x="0"
       y="0"
       width="85.258675"
       height="40.820049"
       id="page2"
       margin="0"
       bleed="0" /></sodipodi:namedview><defs
     id="defs1"><linearGradient
       id="linearGradient44"><stop
         style="stop-color:#1a1a1a;stop-opacity:1;"
         offset="1"
         id="stop44" /><stop
         style="stop-color:#1a1a1a;stop-opacity:0;"
         offset="1"
         id="stop45" /></linearGradient><linearGradient
       id="linearGradient32"><stop
         style="stop-color:#9ec433;stop-opacity:1;"
         offset="0"
         id="stop32" /><stop
         style="stop-color:#9ec433;stop-opacity:0;"
         offset="1"
         id="stop33" /></linearGradient><linearGradient
       id="linearGradient30"><stop
         style="stop-color:#51abb5;stop-opacity:1;"
         offset="0"
         id="stop30" /><stop
         style="stop-color:#51abb5;stop-opacity:0;"
         offset="1"
         id="stop31" /></linearGradient><linearGradient
       xlink:href="#linearGradient30"
       id="linearGradient31"
       x1="292.2818"
       y1="363.50601"
       x2="266.18814"
       y2="396.49234"
       gradientUnits="userSpaceOnUse"
       gradientTransform="matrix(0.09584261,0,0,0.09857106,46.110246,62.693366)" /><linearGradient
       xlink:href="#linearGradient32"
       id="linearGradient33"
       x1="276.19891"
       y1="403.22089"
       x2="250.26938"
       y2="423.57068"
       gradientUnits="userSpaceOnUse"
       gradientTransform="matrix(0.09584261,0,0,0.09857106,46.110246,62.693366)" /><linearGradient
       xlink:href="#linearGradient44"
       id="linearGradient45"
       x1="116.36842"
       y1="75.809845"
       x2="120.88422"
       y2="273.69733"
       gradientUnits="userSpaceOnUse"
       gradientTransform="matrix(0.43902993,0,0,0.44113806,35.11038,64.369626)" /></defs><g
     id="layer1"
     transform="translate(-70.074541,-86.711203)"
     style="opacity:1"><path
       style="fill:url(#linearGradient33);fill-opacity:1;stroke:#000000;stroke-width:0.0159512"
       d="m 71.259646,104.22749 c -0.279977,-0.0239 -0.42686,-0.0918 -0.617705,-0.28608 -0.149145,-0.15178 -0.190761,-0.23824 -0.19062,-0.39612 9.8e-5,-0.11218 0.0059,-0.13575 0.06559,-0.25881 0.04133,-0.0855 0.132792,-0.22196 0.24789,-0.36997 0.100289,-0.12905 0.210713,-0.28282 0.245367,-0.3418 0.151156,-0.25729 0.229301,-0.53527 0.215266,-0.76571 -0.0042,-0.0716 0,-0.16417 0.0097,-0.20597 l 0.01766,-0.0759 0.117984,0.0806 c 0.27492,0.18774 0.684792,0.36816 1.329989,0.58542 0.686419,0.23117 0.964639,0.35769 1.319957,0.60027 0.112273,0.0767 0.208789,0.13933 0.214497,0.13933 0.0059,0 0.04958,0.05 0.09755,0.111 l 0.08717,0.11098 -0.150002,0.19565 c -0.146187,0.19065 -0.151273,0.19535 -0.199441,0.18427 -0.02715,-0.006 -0.134362,-0.0105 -0.238172,-0.0105 -0.309549,0.003 -0.587653,0.0862 -0.935867,0.2829 -0.09083,0.0513 -0.189926,0.0983 -0.220201,0.10443 -0.03029,0.006 -0.07631,0.0276 -0.102231,0.0476 -0.122633,0.0945 -0.435293,0.22021 -0.621294,0.24958 -0.148623,0.0234 -0.519032,0.0334 -0.693068,0.0185 z m 0.186324,-0.0907 c 0.05247,-0.0226 0.05545,-0.027 0.02912,-0.0424 -0.03301,-0.0193 -0.146979,-0.009 -0.170909,0.0164 -0.02335,0.0241 2.88e-4,0.0512 0.04447,0.0512 0.02137,0 0.06518,-0.0116 0.09738,-0.0252 z m 0.372453,0.003 c 0.01592,-0.0117 0.02393,-0.0303 0.01782,-0.0404 -0.02384,-0.0397 -0.135169,-0.008 -0.135169,0.0387 0,0.0304 0.07782,0.0317 0.11737,10e-4 z m -0.595327,-0.0135 c 0.01252,-0.0211 -0.08201,-0.11331 -0.158122,-0.1542 -0.04365,-0.0234 -0.04786,-0.0229 -0.07475,0.0116 -0.04349,0.0552 -0.03714,0.0971 0.01479,0.0981 0.02376,3.9e-4 0.06799,0.0149 0.09831,0.0317 0.06378,0.036 0.103483,0.0402 0.119746,0.0135 z m 0.814843,0.009 c 0.04332,-0.0169 0.02698,-0.0387 -0.0292,-0.0387 -0.05554,0 -0.08745,0.0232 -0.05214,0.0378 0.02855,0.0116 0.05306,0.0116 0.08136,8.6e-4 z"
       id="path26" /><path
       style="fill:url(#linearGradient31);fill-opacity:1;stroke:#000000;stroke-width:0.0159512"
       d="m 74.38468,102.92285 c -0.05948,-0.0747 -0.113525,-0.13576 -0.119964,-0.13576 -0.0065,0 -0.02071,0.0105 -0.03167,0.0248 -0.01732,0.0215 -0.03596,0.009 -0.139549,-0.0944 -0.292429,-0.29156 -0.655733,-0.49459 -1.382796,-0.77276 -0.707087,-0.27054 -0.916989,-0.38554 -1.288108,-0.70574 -0.293393,-0.25314 -0.4821,-0.48085 -0.591251,-0.71346 -0.05099,-0.10861 -0.06452,-0.15725 -0.07055,-0.25347 -0.0098,-0.15768 0.0042,-0.22423 0.06122,-0.29105 0.0833,-0.09756 0.198203,-0.127695 0.713936,-0.186981 0.15572,-0.0179 0.353379,-0.04327 0.439247,-0.05654 0.08587,-0.01343 0.158416,-0.02387 0.161221,-0.02387 0.0026,0 0.005,-0.0075 0.005,-0.01626 0,-0.0089 -0.0106,-0.01612 -0.02361,-0.01612 -0.01301,0 -0.02358,-0.003 -0.02358,-0.0075 0,-0.0045 0.04216,-0.07369 0.09366,-0.154325 0.06724,-0.105318 0.120462,-0.167409 0.1886,-0.220084 0.190523,-0.147239 0.377991,-0.397652 0.62239,-0.831194 0.380781,-0.675452 0.614563,-0.916033 0.985688,-1.014387 0.137322,-0.0364 0.265564,-0.01537 0.444402,0.07295 0.288667,0.142466 0.517482,0.454265 0.674165,0.918703 0.123719,0.366727 0.14707,0.564135 0.16058,1.357363 0.01086,0.638635 0.03235,1.052275 0.06344,1.219585 0.02945,0.15893 0.104402,0.41794 0.163624,0.56565 l 0.04661,0.11637 -0.512629,0.66687 c -0.281942,0.36677 -0.516961,0.67155 -0.522257,0.67726 -0.005,0.006 -0.05833,-0.0507 -0.117869,-0.12532 z"
       id="path30" /></g><g
     id="g33"
     transform="matrix(0.82509125,0,0,0.8516761,-53.059395,-79.3043)"><path
       style="opacity:1;fill:url(#linearGradient45);fill-opacity:1;stroke-width:0.440083"
       d="m 94.22524,138.74738 c -2.70563,-2.86812 -3.6279,-3.67004 -4.86544,-4.23053 -0.61221,-0.27727 -1.13555,-0.40652 -1.90438,-0.47032 -1.11617,-0.0926 -2.09234,0.0264 -4.4376,0.54114 -1.63821,0.35955 -3.23894,0.52142 -4.75096,0.48044 -1.03907,-0.0281 -1.48109,-0.1006 -2.27804,-0.37334 -1.32397,-0.4531 -2.10229,-1.20118 -2.49856,-2.40149 -0.10697,-0.324 -0.12675,-0.49211 -0.12432,-1.05636 0.003,-0.79835 0.0669,-1.05911 0.48753,-2.00428 0.48959,-1.10003 0.43094,-1.34297 -0.57534,-2.38328 -0.51276,-0.53008 -0.67186,-0.81305 -0.66752,-1.18721 0.004,-0.34137 0.15954,-0.63994 0.56477,-1.08393 l 0.32974,-0.36127 -0.15293,-0.12056 c -0.73252,-0.57746 -0.90989,-0.87008 -0.9126,-1.50553 -0.002,-0.41916 0.01,-0.46105 0.25372,-0.9379 0.34783,-0.67925 0.44683,-1.01671 0.44415,-1.51397 -0.003,-0.46205 -0.12494,-0.78179 -0.39258,-1.02511 -0.0829,-0.0754 -0.42266,-0.25114 -0.75492,-0.39052 -1.01396,-0.42533 -1.53625,-0.7967 -1.97611,-1.40507 -0.32062,-0.44345 -0.40287,-0.68 -0.40125,-1.15391 0.001,-0.33104 0.0267,-0.45901 0.12901,-0.64523 0.37448,-0.68174 1.78393,-2.31778 1.92534,-2.23484 0.0293,0.0172 0.0384,0.008 0.0202,-0.0195 -0.0182,-0.0279 0.50724,-0.59478 1.16758,-1.25972 2.28411,-2.30002 3.01684,-3.23719 3.30544,-4.22763 0.20163,-0.69195 0.12497,-1.35018 -0.30205,-2.59353 -0.33614,-0.97876 -0.39952,-1.3046 -0.39937,-2.05314 2.4e-4,-1.15804 0.24338,-2.26558 0.8952,-4.077846 0.71094,-1.97662 2.01266,-4.325 3.11873,-5.62639 0.26808,-0.31542 0.34356,-0.39136 0.22437,-0.22575 -1.54056,2.14053 -2.33503,3.6171 -3.12757,5.81272 -0.59026,1.635236 -0.84096,2.805046 -0.84039,3.921276 4.3e-4,0.82933 0.0633,1.14647 0.4325,2.18147 0.12117,0.33968 0.25692,0.78585 0.30168,0.99148 0.10486,0.4817 0.10407,1.27004 -0.002,1.7101 -0.22425,0.93291 -1.3892,2.38335 -3.71869,4.63003 -2.42532,2.3391 -3.03464,3.18823 -2.8773,4.0097 0.067,0.35001 0.19543,0.58241 0.53679,0.97165 0.3833,0.43706 0.82488,0.73262 1.6546,1.10748 1.09619,0.49525 1.30575,0.76181 1.30016,1.65392 -0.004,0.58888 -0.0775,0.84098 -0.47786,1.63153 -0.28024,0.55342 -0.31199,0.78733 -0.16312,1.20192 0.10176,0.28339 0.55859,0.77877 0.9161,0.9934 l 0.23661,0.14205 -0.41008,0.44161 c -0.46422,0.4999 -0.61014,0.75651 -0.61187,1.07598 -0.002,0.29285 0.16108,0.58331 0.54028,0.96475 0.419,0.42148 0.67172,0.73031 0.82454,1.0076 0.10428,0.18923 0.12754,0.3088 0.1255,0.64523 -0.002,0.38243 -0.0209,0.44929 -0.2522,0.90473 -0.43337,0.85356 -0.50528,1.1449 -0.50288,2.03751 0.002,0.71483 0.0134,0.80252 0.14976,1.14229 0.21506,0.53593 0.39577,0.81735 0.76613,1.19303 0.96746,0.98141 2.42776,1.4173 4.48472,1.33866 1.57662,-0.0603 2.87841,-0.23064 4.36146,-0.57082 2.09349,-0.4802 3.21562,-0.61056 4.36828,-0.50748 2.09528,0.18739 3.27888,1.01711 6.34782,4.44997 3.50498,3.9206 2.82905,3.28891 0.16494,0.46479 z m -17.08223,-6.34535 c -0.46611,-0.13504 -0.86462,-0.44857 -1.05398,-0.82925 -0.10808,-0.21726 -0.11473,-0.30402 -0.10284,-1.34207 0.007,-0.61039 0.0331,-1.17948 0.0581,-1.26465 0.05,-0.1704 0.32959,-0.37762 0.57183,-0.4238 0.14475,-0.0276 0.15114,-0.0402 0.11709,-0.23151 -0.0392,-0.22034 0.0674,-0.5625 0.14041,-0.45044 0.0226,0.0348 0.0826,0.0474 0.13476,0.0284 0.0783,-0.0285 0.0889,-0.0794 0.0636,-0.30433 -0.0269,-0.2391 -0.0242,-0.24937 0.0234,-0.0894 0.0296,0.0994 0.0769,0.252 0.10509,0.33919 0.0282,0.0872 0.0513,0.34169 0.0513,0.56558 v 0.40706 l 0.34022,0.31193 c 0.87641,0.80353 2.99817,2.56931 3.36126,2.79732 0.20276,0.12733 0.24116,0.13333 0.63609,0.0994 0.7459,-0.0641 1.47462,-0.24169 2.47256,-0.60242 0.47368,-0.17122 0.53791,-0.19721 1.45813,-0.58979 1.33245,-0.56846 1.4761,-0.59151 3.99813,-0.64141 l 2.06707,-0.0409 0.62555,-0.15802 c 1.12487,-0.28416 1.87509,-0.64965 2.39399,-1.16631 0.29961,-0.29831 0.4087,-0.45737 0.55234,-0.80541 0.10577,-0.25627 0.12125,-0.42709 0.15905,-1.75503 0.0628,-2.2055 0.26638,-3.31506 0.78729,-4.29054 0.17221,-0.32249 0.22999,-0.30382 0.0809,0.0262 -0.23271,0.51517 -0.47227,1.4141 -0.60683,2.27709 -0.0354,0.22713 -0.071,1.07495 -0.0791,1.88407 -0.0133,1.33193 -0.0257,1.50405 -0.13015,1.81915 -0.35082,1.0581 -1.59405,1.86637 -3.44696,2.24098 -0.28688,0.058 -0.95329,0.0897 -2.51193,0.11951 -2.44712,0.0468 -2.54933,0.0617 -3.64522,0.53187 -1.34468,0.5769 -2.60252,1.00406 -3.48072,1.18203 -0.42838,0.0868 -0.7578,0.11229 -1.55029,0.11987 -0.55349,0.005 -1.10425,0.0357 -1.22392,0.0675 -0.57571,0.15317 -2.05517,0.25836 -2.36625,0.16824 z m 1.9025,-0.21309 c 0.462,-0.0554 0.59973,-0.0893 0.59973,-0.14767 0,-0.0224 -0.22643,-0.20556 -0.50317,-0.40701 -0.27674,-0.20145 -0.57666,-0.43126 -0.66649,-0.51068 -0.0898,-0.0794 -0.41018,-0.34678 -0.71188,-0.59413 -0.3017,-0.24734 -0.71165,-0.60298 -0.911,-0.79029 l -0.36245,-0.34057 -4.4e-4,0.29992 c -5.3e-4,0.34367 -0.0792,1.07052 -0.17028,1.57213 -0.0581,0.32024 -0.0544,0.35352 0.0552,0.49964 0.12879,0.17164 0.40205,0.34834 0.70748,0.45749 0.21154,0.0756 1.16669,0.0567 1.9633,-0.0388 z m 1.90524,-0.12164 c 0,-0.0119 -0.16853,-0.13799 -0.37451,-0.28016 -0.37559,-0.25922 -0.56387,-0.41036 -1.41836,-1.1385 -1.16181,-0.99003 -1.80785,-1.57804 -1.88076,-1.71184 -0.0757,-0.13894 -0.086,-0.14215 -0.22909,-0.0713 -0.0824,0.0408 -0.20432,0.0743 -0.27095,0.0745 -0.0683,1.8e-4 -0.15927,0.0556 -0.20863,0.12703 -0.0831,0.12034 -0.0801,0.13586 0.0587,0.30854 0.18559,0.23089 0.77499,0.72959 2.11901,1.79291 1.01888,0.80609 1.07817,0.84446 1.34959,0.87343 0.36413,0.0389 0.85504,0.0535 0.85504,0.0255 z m -4.65686,-1.22357 c 0.0482,-0.27322 0.0876,-0.77753 0.0876,-1.12068 0,-0.56795 0.0103,-0.63301 0.11457,-0.72522 0.068,-0.0601 0.0977,-0.12714 0.0731,-0.16492 -0.0311,-0.0477 0.007,-0.0562 0.15154,-0.0339 0.32639,0.0503 0.4223,-0.057 0.4223,-0.4725 v -0.34981 h -0.16962 -0.16961 l 0.0328,0.26491 0.0328,0.26491 -0.32481,0.14147 c -0.17864,0.0778 -0.35287,0.19124 -0.38717,0.25206 -0.13229,0.23456 -0.12733,2.62009 0.005,2.48503 0.0241,-0.0245 0.0832,-0.26814 0.13131,-0.54136 z m 16.92326,0.95625 c 1.87959,-0.68846 2.45397,-0.90694 3.34538,-1.27249 1.75275,-0.71878 2.92082,-1.30422 3.67176,-1.84031 1.55259,-1.10838 2.15006,-2.24438 2.74461,-5.21847 0.38505,-1.9261 0.71295,-3.27399 0.8996,-3.69788 0.12182,-0.27667 0.57726,-1.06274 0.60209,-1.03918 0.0113,0.0107 -0.0525,0.19792 -0.14179,0.41605 -0.30201,0.73807 -0.62263,2.07678 -1.00395,4.19197 -0.34267,1.90078 -0.55682,2.67142 -0.97795,3.51924 -0.48765,0.98172 -1.1249,1.65348 -2.23141,2.35226 -0.91743,0.57938 -2.87086,1.42415 -4.62369,1.99954 -0.73771,0.24216 -2.61551,0.7767 -2.71132,0.77181 -0.0346,-0.002 0.15741,-0.0839 0.42667,-0.18254 z m -6.0422,-2.16288 c 0.0483,-0.32779 0.15562,-0.63573 0.18225,-0.52303 0.0367,0.15519 -0.0395,0.52666 -0.1296,0.6322 -0.077,0.0902 -0.0808,0.0822 -0.0526,-0.10917 z m -2.72659,-0.12696 c -0.4697,-0.27177 -0.44277,-0.89827 0.0513,-1.19265 0.22824,-0.136 0.60923,-0.11262 0.85343,0.0524 0.24712,0.16698 0.18267,0.17455 -0.1512,0.0178 l -0.28706,-0.13481 -0.24933,0.0985 c -0.31221,0.12337 -0.47112,0.31741 -0.46138,0.56334 0.0252,0.63605 0.86936,0.88247 1.23065,0.35924 0.10918,-0.15813 0.17835,-0.13729 0.0863,0.026 -0.16644,0.2951 -0.73375,0.40629 -1.07263,0.21022 z m 1.43887,-0.31531 c -0.11219,-0.0562 -0.20398,-0.12486 -0.20398,-0.15258 0,-0.0701 0.0268,-0.0646 0.25777,0.0529 0.11164,0.0568 0.25921,0.10323 0.32793,0.10323 0.20963,0 0.47617,-0.13318 0.63316,-0.31637 l 0.1491,-0.174 -0.0837,0.16161 c -0.046,0.0889 -0.15986,0.22245 -0.25298,0.2968 -0.20875,0.16668 -0.52938,0.1777 -0.82733,0.0285 z m -1.22542,-0.0252 c -0.24781,-0.16472 -0.0862,-0.53907 0.23268,-0.53907 0.1287,0 0.20974,0.0346 0.2689,0.11472 0.11693,0.15842 0.10615,0.26109 -0.0412,0.39247 -0.14864,0.1325 -0.29385,0.14255 -0.46037,0.0319 z m 0.41219,-0.0848 c 0.0857,-0.0814 0.0827,-0.20538 -0.008,-0.32294 -0.16059,-0.20841 -0.53615,0.0627 -0.40809,0.29455 0.0575,0.10415 0.31743,0.12189 0.41595,0.0284 z m 1.0211,-0.32888 c -0.047,-0.0446 -0.0855,-0.10913 -0.0855,-0.14337 0,-0.10663 0.16494,-0.2917 0.25998,-0.2917 0.0706,0 0.0633,0.0182 -0.0334,0.0824 -0.1424,0.0947 -0.14017,0.2647 0.005,0.35081 0.2131,0.12677 0.42993,-0.22427 0.22596,-0.3658 -0.0865,-0.06 -0.0873,-0.0674 -0.007,-0.0674 0.0951,0 0.2027,0.14699 0.2027,0.27682 0,0.12346 -0.15804,0.23936 -0.32638,0.23936 -0.0855,0 -0.19389,-0.0365 -0.2409,-0.0811 z m 1.12648,-0.17684 c 0.25299,-0.13218 1.14651,-0.41308 1.31395,-0.41308 0.0675,0 0.16715,0.0467 0.22154,0.10368 0.0544,0.057 0.19042,0.12971 0.30229,0.16152 0.29141,0.0828 0.58309,-0.0583 0.73081,-0.35368 0.14643,-0.29276 0.362,-0.34129 0.66067,-0.14871 0.34486,0.22237 0.8094,0.15595 1.01755,-0.1455 0.20297,-0.29395 0.0639,-0.90998 -0.24039,-1.06449 -0.29742,-0.15105 -0.74332,-0.0117 -0.93163,0.29118 -0.12472,0.20059 -0.18301,0.20621 -0.10443,0.0101 0.0726,-0.18117 0.35667,-0.39255 0.58132,-0.43255 0.29694,-0.0529 0.63125,0.0914 0.77526,0.33457 0.33857,0.57162 -0.0954,1.28671 -0.74407,1.22594 -0.13027,-0.0122 -0.30881,-0.0727 -0.39676,-0.13437 -0.20457,-0.14353 -0.44736,-0.12643 -0.47129,0.0332 -0.009,0.0622 -0.0932,0.1839 -0.18645,0.27038 -0.28397,0.26346 -0.70696,0.27186 -1.022,0.0203 l -0.16208,-0.12941 -0.69336,0.21582 c -0.38135,0.11871 -0.73008,0.22634 -0.77496,0.23919 -0.0449,0.0128 0.0109,-0.025 0.12403,-0.0841 z m -1.55399,-0.25805 c 0.14821,0.2046 0.41397,-0.41312 0.61522,-0.41312 0.0816,0 0.24764,0.0333 0.36905,0.0739 0.20982,0.0702 0.26158,0.0637 1.04567,-0.13262 0.45371,-0.11359 0.83647,-0.19557 0.85058,-0.18218 0.046,0.0436 -0.59466,0.24709 -1.15138,0.36573 -0.54188,0.11547 -0.54487,0.11554 -0.78072,0.0166 -0.37815,-0.15864 -0.57511,-0.0908 -0.93833,0.32313 l -4.27257,-5.93565 z m 3.37463,-0.2624 c -0.1428,-0.0789 -0.12667,-0.38204 0.0257,-0.48332 0.16271,-0.10815 0.29237,-0.10113 0.42307,0.0229 0.28246,0.26804 -0.0954,0.65573 -0.44877,0.46043 z m 0.42367,-0.15394 c 0.0195,-0.0299 0.0203,-0.11102 0.002,-0.18038 -0.0393,-0.14874 -0.24593,-0.17314 -0.38097,-0.045 -0.11735,0.11136 -0.10711,0.20836 0.0317,0.30064 0.11862,0.0788 0.26798,0.0465 0.34726,-0.0753 z m 1.14866,-0.29765 c -0.13569,-0.14229 -0.1126,-0.34583 0.0533,-0.46966 0.18023,-0.13453 0.31604,-0.13564 0.45504,-0.004 0.13591,0.12897 0.14056,0.36966 0.009,0.48237 -0.13204,0.11339 -0.40548,0.10865 -0.51766,-0.009 z m 0.40886,-0.0427 c 0.18639,-0.16007 0.0951,-0.43076 -0.14531,-0.43076 -0.32407,0 -0.32826,0.50447 -0.004,0.51462 0.0276,8.8e-4 0.0949,-0.0369 0.14959,-0.0839 z m -2.45716,-0.0217 c 0,-0.0329 0.095,-0.15004 0.21119,-0.26026 0.18096,-0.17172 0.24519,-0.20037 0.44877,-0.20021 0.13717,1.2e-4 0.30906,0.0416 0.4067,0.0981 0.093,0.0538 0.2154,0.10911 0.27198,0.12287 0.0781,0.019 0.0702,0.026 -0.0331,0.0292 -0.0748,0.002 -0.19719,-0.029 -0.27198,-0.0696 -0.0748,-0.0406 -0.24382,-0.0746 -0.3756,-0.0756 -0.21035,-0.002 -0.26515,0.0236 -0.44878,0.20681 -0.11503,0.11476 -0.20916,0.18171 -0.20916,0.14878 z m -0.76155,-0.13908 c 0,-0.15189 0.2514,-0.85159 0.37099,-1.03256 0.13822,-0.20916 0.56268,-0.47624 0.75687,-0.47624 0.12823,0 1.01255,-0.34235 1.66535,-0.64472 1.09271,-0.50612 2.13534,-1.21346 2.81657,-1.9108 0.65562,-0.67113 1.33468,-1.98713 1.4639,-2.83703 l 0.0473,-0.31127 -0.0218,0.38714 c -0.0578,1.02834 -0.68245,2.22406 -1.63088,3.122 -0.25222,0.23879 -0.72226,0.59573 -1.11122,0.84384 -0.79007,0.50396 -2.19779,1.17127 -2.97002,1.40789 -0.29918,0.0917 -0.60789,0.20854 -0.68601,0.2597 -0.16926,0.11085 -0.39671,0.52398 -0.51477,0.93499 -0.0469,0.16324 -0.108,0.29681 -0.13579,0.29681 -0.0278,0 -0.0505,-0.0179 -0.0505,-0.0397 z m -10.8086,-1.5217 c -0.0613,-0.0639 -0.14023,-0.16903 -0.17536,-0.23365 -0.0905,-0.16657 -0.27337,-0.97875 -0.27566,-1.22457 -0.004,-0.37958 -0.0358,-0.42389 -0.32837,-0.45056 -0.58176,-0.053 -0.70198,-0.29831 -0.60145,-1.22704 0.0466,-0.43039 0.0487,-0.73161 0.008,-1.09551 -0.0963,-0.8559 -0.17922,-1.12004 -0.44045,-1.40238 -0.25588,-0.27654 -0.2009,-0.33105 0.27142,-0.2691 0.29347,0.0385 0.48,0.0339 0.75388,-0.0187 0.23043,-0.0442 0.64575,-0.0648 1.13221,-0.0563 0.95989,0.0169 0.99823,0.002 1.00342,-0.39892 0.002,-0.16224 0.0265,-0.34145 0.0542,-0.39823 0.0333,-0.0682 0.0394,0.0228 0.0182,0.26795 -0.0177,0.20415 -0.0184,0.39238 -0.001,0.41829 0.0317,0.0487 0.48948,-0.002 0.85962,-0.0957 l 0.19995,-0.0505 -0.0301,-0.29585 c -0.0165,-0.16271 -0.0526,-0.31907 -0.0801,-0.34746 -0.0275,-0.0284 -0.22637,-0.0653 -0.44187,-0.082 l -0.39182,-0.0303 0.41491,-0.008 c 0.2763,-0.006 0.43289,0.0132 0.46873,0.0562 0.0296,0.0355 0.0708,0.19095 0.0915,0.34546 0.0207,0.15451 0.0481,0.29693 0.0609,0.31647 0.0127,0.0195 0.18873,0.003 0.39111,-0.0377 0.40273,-0.0801 3.50276,-0.58553 3.59157,-0.58553 0.0302,0 0.0715,-0.10413 0.0916,-0.23141 0.0201,-0.12728 0.0657,-0.24922 0.10137,-0.27099 0.0357,-0.0217 0.10994,-0.12395 0.1651,-0.22706 0.13961,-0.26094 0.40362,-0.55449 1.35972,-1.51183 0.45591,-0.4565 0.97439,-0.98098 1.15217,-1.16551 0.17779,-0.18454 0.50399,-0.51563 0.72489,-0.73577 0.29876,-0.29771 0.39438,-0.42664 0.37326,-0.50328 -0.0368,-0.13342 0.0249,-0.13222 0.11331,0.002 0.0381,0.0579 0.0891,0.0936 0.11346,0.0793 0.0243,-0.0143 0.19221,0.0872 0.3731,0.22555 0.24072,0.18407 0.34505,0.23615 0.38918,0.19427 0.0331,-0.0315 0.0603,-0.0854 0.0603,-0.11993 0,-0.0754 -0.52931,-0.48444 -0.62684,-0.48444 -0.0378,0 -0.082,-0.033 -0.0984,-0.0734 -0.0163,-0.0404 -0.074,-0.0836 -0.12822,-0.0961 -0.0542,-0.0125 -0.0373,-0.013 0.0375,-10e-4 0.41627,0.066 0.5788,-0.0436 0.33973,-0.22908 -0.11277,-0.0875 -0.12682,-0.11595 -0.0574,-0.11614 0.0506,-1.5e-4 0.1069,0.0226 0.12513,0.0506 0.0419,0.0644 0.26027,0.0354 0.28605,-0.038 0.0106,-0.0303 -0.006,-0.0702 -0.0379,-0.0887 -0.10844,-0.0636 -0.0611,-0.1363 0.0515,-0.0791 0.0669,0.034 0.10879,0.0359 0.10879,0.005 0,-0.0276 0.16523,0.10611 0.36718,0.29719 0.20195,0.19108 0.4269,0.38655 0.49988,0.43437 0.15385,0.10079 0.10486,0.19373 -0.0529,0.10026 -0.14014,-0.083 -0.17969,-0.0789 -0.14178,0.0149 0.0551,0.13621 -0.0179,0.23683 -0.13032,0.17972 -0.14872,-0.0755 -0.15721,-0.0666 -0.1236,0.12999 0.0296,0.17312 -0.0409,0.24941 -0.11933,0.12905 -0.0649,-0.0996 -0.12072,-0.0502 -0.10225,0.0903 0.0175,0.13347 0.0162,0.13447 -0.0227,0.0167 -0.0514,-0.15595 -0.16231,-0.19672 -0.21055,-0.0774 -0.0248,0.0613 0.01,0.12752 0.10876,0.20828 0.0798,0.0651 0.1451,0.13581 0.1451,0.15705 0,0.0212 -0.0294,0.0107 -0.0653,-0.0233 -0.0924,-0.0876 -0.15171,-0.0768 -0.156,0.0284 -0.003,0.0719 -0.0157,0.0667 -0.0627,-0.0258 -0.0696,-0.13693 -0.14127,-0.14914 -0.18859,-0.0321 -0.0218,0.054 0.0129,0.1182 0.0969,0.17952 0.093,0.0678 0.10649,0.0958 0.0466,0.0966 -0.0464,4.4e-4 -0.11216,-0.0253 -0.1462,-0.0576 -0.0462,-0.0439 -0.23798,0.0963 -0.75882,0.5549 -1.42971,1.25879 -2.68079,2.29121 -2.77645,2.29121 -0.038,0 -0.0692,0.0236 -0.0692,0.0523 0,0.0834 0.23914,0.41089 0.30055,0.41159 0.14788,0.002 1.69522,-0.27694 2.30386,-0.41486 0.37762,-0.0856 1.23734,-0.31683 1.91049,-0.51392 1.59122,-0.46589 1.87704,-0.5263 2.52943,-0.5347 0.60904,-0.008 0.7778,0.0542 0.89827,0.33017 0.10224,0.23424 0.0226,0.47373 -0.27525,0.82726 -0.14932,0.17726 -0.28563,0.37575 -0.30291,0.4411 -0.0199,0.0753 0.0248,0.22801 0.12234,0.41707 0.19609,0.38031 0.23951,0.89366 0.10406,1.23022 l -0.0916,0.22772 0.19153,0.18175 c 0.22693,0.21534 0.27415,0.4022 0.23963,0.94826 -0.0406,0.64169 -0.36365,1.10734 -1.03704,1.49462 -0.68497,0.39393 -1.38417,0.49841 -1.99763,0.29852 -0.32647,-0.10638 -0.29705,-0.17219 0.0375,-0.084 0.96359,0.25391 2.30102,-0.29165 2.7059,-1.1038 0.16336,-0.32768 0.22926,-0.84928 0.14479,-1.14604 -0.096,-0.33748 -0.2181,-0.44419 -0.55497,-0.48521 -0.16137,-0.0196 -0.36905,-0.0524 -0.4615,-0.0729 -0.15179,-0.0335 -0.1748,-0.0217 -0.23722,0.12124 -0.0868,0.19895 -0.49399,0.5594 -0.68264,0.60432 -0.13165,0.0314 -0.23781,0.0231 -0.80354,-0.0625 -0.27997,-0.0424 -0.49349,0.0533 -0.66382,0.29758 l -0.14256,0.20442 0.15137,0.2936 c 0.1288,0.24981 0.15281,0.36482 0.16106,0.77125 0.0146,0.72106 -0.16595,0.99675 -0.85114,1.29945 -1.07574,0.47522 -2.18758,0.4032 -2.80389,-0.18162 -0.21597,-0.20495 -0.24232,-0.21198 -0.24232,-0.0647 0,0.37503 -0.30787,0.81897 -0.56795,0.81897 -0.37374,0 -0.84654,-0.40333 -1.1841,-1.01011 l -0.18952,-0.34068 -0.0321,0.45602 c -0.05,0.71011 -0.25807,1.14584 -0.59809,1.25232 -0.49886,0.15623 -1.10835,-0.37497 -1.4888,-1.29753 l -0.15517,-0.37628 -0.0319,0.61942 c -0.0175,0.34068 -0.0728,0.75144 -0.12287,0.91279 -0.10668,0.34392 -0.32126,0.60994 -0.49199,0.60994 -0.19393,0 -0.53959,-0.24655 -0.77061,-0.54966 l -0.21458,-0.28155 -0.0345,0.35625 c -0.0407,0.42051 -0.11057,0.56545 -0.29342,0.609 -0.21046,0.0501 -0.41022,-0.0218 -0.59642,-0.21468 -0.20232,-0.2096 -0.24515,-0.21928 -0.24515,-0.0554 0,0.21183 -0.19787,0.39433 -0.42552,0.39246 -0.11002,-8.9e-4 -0.24699,-0.0353 -0.30436,-0.0765 -0.0932,-0.0669 -0.11237,-0.064 -0.17987,0.0274 -0.10035,0.13595 -0.29613,0.12973 -0.43388,-0.0138 z m 0.36528,-0.0654 c 0.0566,-0.0647 0.0298,-0.15735 -0.15432,-0.53342 -0.12255,-0.2503 -0.2823,-0.65058 -0.35499,-0.88951 -0.0823,-0.27057 -0.16009,-0.43443 -0.2062,-0.43443 -0.0917,0 -0.0775,0.2905 0.0426,0.87206 0.10838,0.52497 0.21199,0.79948 0.35707,0.94602 0.13597,0.13735 0.22084,0.1479 0.31584,0.0393 z m 0.69267,-8.8e-4 c 0.0656,-0.0436 0.14843,-0.17156 0.18403,-0.28432 0.0591,-0.18713 0.0467,-0.25789 -0.14152,-0.81112 -0.11344,-0.33335 -0.21319,-0.63185 -0.22166,-0.66332 -0.008,-0.0314 -0.11955,-0.073 -0.24683,-0.0923 -0.16278,-0.0247 -0.28247,-0.0865 -0.40359,-0.20835 l -0.17218,-0.17324 -0.13803,0.16415 -0.13802,0.16414 0.14627,0.46276 c 0.20317,0.64275 0.49343,1.21099 0.70478,1.37975 0.20368,0.16263 0.26237,0.17114 0.42675,0.0619 z m 1.24917,-0.23042 c 0.0389,-0.0734 0.0688,-0.32081 0.0692,-0.57368 8.8e-4,-0.38232 -0.0259,-0.51253 -0.18931,-0.92913 -0.10457,-0.26647 -0.19025,-0.52514 -0.19039,-0.57482 -3.8e-4,-0.13057 -0.0306,-0.11599 -0.28809,0.13903 -0.16356,0.16198 -0.30712,0.24854 -0.48866,0.29461 -0.14137,0.0359 -0.25705,0.0812 -0.25705,0.10072 0,0.0195 0.0514,0.19471 0.11416,0.38933 0.15191,0.47087 0.46079,1.02283 0.66251,1.18391 0.2116,0.16895 0.46933,0.15534 0.5676,-0.03 z m 1.4967,-0.29837 c 0.061,-0.13086 0.14419,-0.44826 0.18488,-0.70534 0.0743,-0.4696 0.10135,-1.21587 0.044,-1.21587 -0.0169,0 -0.0921,0.0693 -0.16719,0.15392 -0.16091,0.18147 -0.47977,0.28545 -0.73564,0.23989 -0.24797,-0.0441 -0.83808,-0.41763 -0.95395,-0.60376 -0.24615,-0.39543 -0.24087,0.0441 0.008,0.69753 0.35884,0.94071 0.7441,1.51601 1.14039,1.70295 0.21436,0.10113 0.33909,0.031 0.47909,-0.26932 z m 2.11918,-0.25261 c 0.22271,-0.19042 0.33317,-0.54002 0.35906,-1.1364 0.0138,-0.31768 0.009,-0.6374 -0.0101,-0.71048 -0.035,-0.13249 -0.0357,-0.13262 -0.21071,-0.045 -0.39955,0.19997 -1.0173,0.0481 -1.4767,-0.36306 l -0.19856,-0.1777 -0.16129,0.33755 c -0.1762,0.36876 -0.18648,0.4095 -0.10971,0.43511 0.0284,0.009 0.16489,0.24949 0.30336,0.53339 0.31617,0.64819 0.59982,1.01001 0.90574,1.15535 0.25026,0.1189 0.43666,0.10996 0.59887,-0.0287 z m 2.10416,-0.39666 c 0.1671,-0.16878 0.22856,-0.41355 0.30644,-1.22033 l 0.0673,-0.69684 0.007,0.48428 c 0.006,0.38568 0.0292,0.51822 0.1157,0.65096 0.33105,0.50828 1.22641,0.75389 2.10306,0.57689 0.75681,-0.1528 1.30019,-0.48162 1.46255,-0.88502 0.12856,-0.31944 0.0927,-0.95136 -0.0721,-1.27102 -0.15058,-0.292 -0.46638,-0.60243 -0.71502,-0.70285 -0.18411,-0.0744 -0.18848,-0.073 -0.35358,0.10523 -0.0919,0.0993 -0.23738,0.22192 -0.3232,0.27253 -0.1523,0.0898 -0.15519,0.0998 -0.12088,0.41761 0.0193,0.17907 0.0141,0.32558 -0.0117,0.32558 -0.0257,0 -0.12378,-0.0909 -0.21784,-0.20195 -0.0941,-0.11108 -0.30011,-0.26331 -0.45787,-0.33831 -0.1755,-0.0834 -0.22878,-0.12486 -0.13726,-0.10677 0.0823,0.0163 0.14959,0.0111 0.14959,-0.0115 0,-0.0226 0.0987,-0.0321 0.21932,-0.0212 0.12063,0.0109 0.29172,-0.009 0.38019,-0.0434 0.28994,-0.11397 0.75892,-0.70869 0.76123,-0.96534 4.4e-4,-0.0508 0.027,-0.12722 0.0589,-0.16981 0.0442,-0.0589 0.0516,-0.0341 0.031,0.10323 -0.0149,0.0994 -0.0434,0.21971 -0.0633,0.26743 -0.0764,0.18303 0.72496,0.26909 1.01126,0.1086 0.22053,-0.12362 0.34304,-0.45787 0.346,-0.94403 0.002,-0.35195 -0.0136,-0.41416 -0.14659,-0.57996 -0.19049,-0.23746 -0.43711,-0.31369 -0.92988,-0.2874 -0.83182,0.0444 -1.76152,0.55299 -2.10473,1.15146 -0.13357,0.23293 -0.14442,0.29037 -0.11126,0.589 0.0343,0.30875 0.053,0.34465 0.2787,0.53608 0.23046,0.19543 0.23319,0.20091 0.0574,0.11562 -0.18209,-0.0884 -0.18415,-0.0881 -0.15469,0.0188 0.0332,0.12059 0.0316,0.12186 -0.096,0.0754 -0.0611,-0.0223 -0.0705,-0.0448 -0.0289,-0.0692 0.0457,-0.0268 0.0447,-0.0718 -0.004,-0.17348 -0.0796,-0.1658 -0.13751,-0.17435 -0.18659,-0.0276 -0.023,0.0688 -0.009,0.12621 0.0371,0.15406 0.059,0.0355 0.0564,0.0445 -0.0133,0.0452 -0.0479,4.4e-4 -0.16212,0.11538 -0.25387,0.25542 -0.16054,0.24507 -0.56455,0.5549 -0.60194,0.46163 -0.01,-0.0249 -0.0861,-0.0452 -0.16919,-0.0452 -0.0831,0 -0.41288,-0.12624 -0.73288,-0.28053 -0.37415,-0.1804 -0.58949,-0.25871 -0.60328,-0.21938 -0.0118,0.0336 -0.0471,0.1563 -0.0784,0.27258 -0.0313,0.11628 -0.13043,0.30771 -0.22027,0.4254 -0.0898,0.11769 -0.16335,0.23894 -0.16335,0.26943 0,0.10171 0.36819,0.81328 0.57041,1.10238 0.37759,0.5398 0.8464,0.74123 1.10866,0.47634 z m -8.38781,-0.85574 c 0.12474,-0.0538 0.24898,-0.14034 0.2761,-0.19244 0.0271,-0.0521 0.0452,-0.4083 0.0402,-0.79156 -0.008,-0.59334 -0.0269,-0.73491 -0.12858,-0.95306 -0.15226,-0.32654 -0.26244,-0.44064 -0.42551,-0.44064 -0.31457,0 -0.58431,0.54229 -0.68188,1.37084 -0.0784,0.66532 -0.0167,0.92219 0.24753,1.03124 0.23574,0.0973 0.40392,0.0912 0.67217,-0.0244 z m 1.84162,-0.0698 c 0.12042,-0.076 0.26227,-0.20783 0.31522,-0.29289 0.29785,-0.47848 0.0464,-1.53103 -0.48178,-2.01683 -0.158,-0.14532 -0.20461,-0.1616 -0.37557,-0.13117 -0.25436,0.0453 -0.54909,0.32692 -0.72873,0.69636 -0.12034,0.24746 -0.14055,0.36158 -0.14251,0.80455 -0.003,0.60776 0.10184,0.86877 0.40942,1.02229 0.26984,0.13469 0.71853,0.0979 1.00395,-0.0823 z m 2.08753,-0.11145 c 0.37645,-0.18473 0.71253,-0.77904 0.71253,-1.26003 0,-0.13583 -0.0393,-0.35645 -0.0874,-0.49027 -0.15616,-0.43489 -0.82106,-1.01392 -1.16429,-1.01392 -0.30399,0 -0.70683,0.37171 -0.98601,0.9098 l -0.16404,0.31618 0.0939,0.44882 c 0.0913,0.43633 0.1018,0.45541 0.37683,0.68551 0.52688,0.4408 0.89473,0.56274 1.21841,0.40391 z m 2.56254,-0.61626 c 0.35614,-0.22365 0.5115,-0.49852 0.53538,-0.94723 0.0189,-0.35563 0.006,-0.40999 -0.17717,-0.76223 -0.30498,-0.58558 -0.64863,-0.78517 -1.12077,-0.65093 -0.23971,0.0682 -0.6376,0.45737 -0.90969,0.88988 -0.17401,0.2766 -0.17519,0.28292 -0.11369,0.61401 0.0757,0.4077 0.28694,0.64707 0.77894,0.88281 0.39323,0.18841 0.67686,0.181 1.007,-0.0263 z m 2.46918,-0.60465 c 0.0799,-0.0597 0.22337,-0.2513 0.31874,-0.42585 0.15456,-0.28289 0.17355,-0.36505 0.17478,-0.75613 0.001,-0.41805 -0.008,-0.45234 -0.19594,-0.72668 -0.12244,-0.17866 -0.26189,-0.3133 -0.36745,-0.35479 -0.2136,-0.084 -0.67553,-0.0505 -0.93638,0.0678 -0.31426,0.14255 -0.78818,0.57529 -0.88718,0.81008 -0.083,0.19691 -0.083,0.23304 4.4e-4,0.50463 0.0495,0.16089 0.0967,0.31783 0.10509,0.34875 0.008,0.0309 0.28765,0.18772 0.62069,0.34843 0.67821,0.32727 0.92317,0.36583 1.16715,0.18372 z m 1.82761,-0.1277 c 0,-0.17665 -0.008,-0.18396 -0.17679,-0.17066 -0.0972,0.008 -0.19885,0.0245 -0.22581,0.0376 -0.0486,0.0235 0.28335,0.31359 0.3618,0.31626 0.0224,8.8e-4 0.0408,-0.0817 0.0408,-0.18317 z m -10.26467,-0.43256 c 0.14321,-0.29495 0.48675,-0.60975 0.70849,-0.64923 0.2779,-0.0495 0.5016,0.0855 0.73511,0.44355 0.10958,0.16801 0.21148,0.30478 0.22643,0.30393 0.015,-8.8e-4 0.0842,-0.11686 0.15386,-0.25779 0.0697,-0.14093 0.24816,-0.3824 0.39667,-0.53659 0.31153,-0.32346 0.56062,-0.42856 0.81569,-0.34419 0.28124,0.093 0.68855,0.41197 0.87519,0.6853 l 0.17772,0.26027 0.0722,-0.16789 c 0.1127,-0.26208 0.4823,-0.7527 0.65487,-0.86931 0.22413,-0.15144 0.59929,-0.23493 0.85406,-0.19005 0.15814,0.0278 0.28427,0.10547 0.47403,0.29169 0.14221,0.13955 0.27072,0.25374 0.28559,0.25374 0.0149,0 0.027,-0.0489 0.027,-0.10858 0,-0.0653 0.1464,-0.24726 0.36717,-0.45638 0.78381,-0.74246 1.64648,-0.76594 2.0492,-0.0558 0.1397,0.24636 0.166,0.26889 0.21758,0.18635 0.14404,-0.23051 0.47615,-0.5711 0.7189,-0.73727 0.34049,-0.23306 0.60967,-0.34332 1.09273,-0.44758 0.72133,-0.15568 1.16184,-0.0918 1.4206,0.20612 l 0.15936,0.18345 0.12683,-0.24099 c 0.16297,-0.30963 0.46588,-0.5673 0.8865,-0.75408 0.47565,-0.21122 0.76983,-0.23985 1.06654,-0.10382 0.28081,0.12875 0.27164,0.12737 0.27164,0.0406 0,-0.0376 0.13463,-0.21589 0.29918,-0.39619 0.24333,-0.26663 0.29918,-0.36254 0.29918,-0.51376 0,-0.38597 -0.3321,-0.55769 -0.95592,-0.4943 -0.39984,0.0406 -0.64821,0.10129 -2.52088,0.61562 -1.94072,0.53303 -3.53636,0.86211 -5.66181,1.16766 -0.72776,0.10462 -2.85671,0.47261 -3.42392,0.59184 -1.47736,0.31051 -2.4339,0.4035 -2.95979,0.2877 -0.15026,-0.0331 -0.27197,-0.0253 -0.42929,0.0273 -0.13493,0.0452 -0.44757,0.0749 -0.81102,0.077 l -0.59144,0.004 0.10973,0.13237 c 0.16781,0.20244 0.33047,0.76519 0.36565,1.26502 0.0316,0.44904 0.0848,0.53627 0.15142,0.24837 0.0194,-0.0837 0.12269,-0.22499 0.22962,-0.31407 0.32141,-0.26779 0.60078,-0.15046 0.81416,0.34195 0.0544,0.12554 0.11115,0.22774 0.12611,0.22712 0.015,-4.4e-4 0.0712,-0.0918 0.12504,-0.20265 z m 11.85279,-0.141 c 0.0839,-0.0763 0.15257,-0.15519 0.15257,-0.17533 0,-0.0202 -0.12852,-0.0385 -0.28558,-0.0408 -0.15708,-0.002 -0.3711,-0.0279 -0.47561,-0.057 -0.23388,-0.0649 -0.27235,-0.0657 -0.27235,-0.005 0,0.0262 0.0796,0.0727 0.17679,0.10336 0.0972,0.0307 0.25023,0.11292 0.33998,0.18281 0.0897,0.0699 0.17409,0.1279 0.18741,0.12892 0.0133,8.8e-4 0.0929,-0.0606 0.17679,-0.13684 z m 1.67414,-0.32513 c 0.20577,-0.0996 0.32718,-0.20721 0.23382,-0.20721 -0.0254,0 -0.14307,0.048 -0.26159,0.10659 -0.23763,0.11754 -0.48504,0.1108 -0.89893,-0.0245 -0.21329,-0.0697 -0.23959,-0.0688 -0.30151,0.0111 -0.0612,0.079 -0.0363,0.0905 0.25544,0.11843 0.1778,0.017 0.3392,0.046 0.35867,0.0645 0.072,0.0683 0.40875,0.0305 0.6141,-0.0689 z m 0.0362,-0.23445 c 0.27771,-0.15443 0.59351,-0.5282 0.68135,-0.8064 0.0345,-0.1093 0.0808,-0.19872 0.1028,-0.19872 0.0401,0 -0.0104,0.25671 -0.0837,0.42513 -0.0467,0.1074 0.14858,0.19429 0.43673,0.19429 0.28718,0 0.37868,-0.17455 0.37764,-0.72039 -8.7e-4,-0.39657 -0.0187,-0.47373 -0.1785,-0.76539 -0.31573,-0.57643 -0.61258,-0.64339 -1.33876,-0.30198 -0.68509,0.3221 -1.01078,0.71724 -1.01198,1.22775 -3.5e-4,0.15186 -0.0359,0.40199 -0.0791,0.55586 -0.0432,0.15386 -0.0655,0.29969 -0.0496,0.32407 0.0593,0.0911 0.38293,0.18798 0.64133,0.19205 0.19343,0.003 0.33197,-0.0318 0.50182,-0.12627 z m -6.40474,-2.26875 c 0.25117,-0.0419 0.46628,-0.0854 0.478,-0.0965 0.0333,-0.0316 -0.10367,-0.29167 -0.15366,-0.29167 -0.17892,0 -0.84321,0.13565 -0.87539,0.17876 -0.0653,0.0875 -0.047,0.28581 0.0264,0.28573 0.0374,-4e-5 0.2735,-0.0344 0.52468,-0.0763 z m 0.18246,-0.4734 c 0.20073,-0.0526 0.0333,-0.32771 -0.19943,-0.32771 -0.12913,0 -0.24439,0.0975 -0.35516,0.30055 -0.0651,0.11925 -0.0641,0.11969 0.197,0.086 0.14432,-0.0186 0.30524,-0.0451 0.35759,-0.0588 z m 0.36656,-0.31337 c 0.0602,-0.0489 0.10979,-0.136 0.11025,-0.19357 4.4e-4,-0.0741 0.0138,-0.0853 0.0453,-0.0382 0.0319,0.0477 0.2499,-0.10905 0.77433,-0.55697 0.40144,-0.34288 1.07871,-0.91546 1.50504,-1.27241 0.42633,-0.35694 0.77515,-0.68766 0.77515,-0.73492 0,-0.0473 -0.0551,-0.12894 -0.1224,-0.18151 -0.0673,-0.0526 -0.20375,-0.16808 -0.30319,-0.25666 l -0.1808,-0.16107 -0.11045,0.12904 c -0.13309,0.15549 -1.01448,1.04754 -2.80242,2.8363 l -0.28265,0.28278 0.15374,0.0614 c 0.0845,0.0337 0.17035,0.0869 0.19067,0.11805 0.0519,0.0797 0.1208,0.0708 0.24748,-0.0322 z m 3.40918,-2.98547 c 0.0409,-0.10124 -0.2111,-0.3595 -0.47801,-0.48981 -0.31436,-0.15346 -0.29679,-0.0493 0.0445,0.26406 0.3517,0.32289 0.38679,0.34117 0.43347,0.22575 z m 0.59835,-0.5225 c -0.0828,-0.15168 -0.51744,-0.58421 -0.587,-0.58421 -0.022,0 -0.057,0.0508 -0.0778,0.11291 -0.0303,0.0906 0.004,0.14416 0.17202,0.271 0.11538,0.087 0.28371,0.22035 0.37408,0.29644 0.18672,0.15726 0.23548,0.11775 0.11866,-0.0961 z m 0.34481,-0.0379 c 0,-0.0118 -0.0472,-0.12601 -0.10488,-0.25371 -0.0999,-0.22117 -0.42535,-0.49904 -0.58449,-0.49904 -0.17064,0 -0.10082,0.12755 0.23839,0.4355 0.32975,0.29936 0.45098,0.38464 0.45098,0.31725 z m -10.79545,4.30241 c 0.0197,-0.0303 -0.009,-0.0871 -0.0648,-0.12624 -0.094,-0.0665 -0.0881,-0.0755 0.0898,-0.13734 l 0.19038,-0.0662 -0.19038,-0.0276 c -0.15763,-0.0229 -0.18816,-0.0475 -0.17743,-0.14313 0.007,-0.0635 -0.0153,-0.11552 -0.0499,-0.11552 -0.0346,0 -0.0483,-0.0138 -0.0306,-0.0306 0.0177,-0.0168 0.16256,-0.0358 0.32184,-0.0421 0.15928,-0.006 0.39976,-0.043 0.53439,-0.0815 l 0.24478,-0.0699 -0.21758,-0.0373 c -0.14358,-0.0246 -0.29798,-0.0116 -0.45393,0.0383 -0.2803,0.0897 -0.36476,0.0583 -0.10641,-0.0395 l 0.17956,-0.068 -0.23381,-0.0185 c -0.20284,-0.0161 -0.22938,-0.0318 -0.20032,-0.11866 0.0189,-0.0564 0.008,-0.10014 -0.0246,-0.10014 -0.0319,0 -0.0579,-0.0174 -0.0578,-0.0387 1.5e-4,-0.0213 0.11192,-0.0448 0.24839,-0.0523 0.13646,-0.008 0.33516,-0.0482 0.44154,-0.0903 0.24392,-0.0967 0.28356,-0.0969 0.14974,-8.8e-4 -0.10002,0.0718 -0.0965,0.0759 0.0677,0.0774 0.23635,0.002 0.46771,0.0911 0.42158,0.16192 -0.0242,0.0371 -0.0492,0.0391 -0.0713,0.005 -0.0187,-0.0285 -0.19442,-0.068 -0.39049,-0.0879 -0.28759,-0.0291 -0.39799,-0.0179 -0.57117,0.0581 l -0.21467,0.0942 0.31137,0.0165 c 0.17125,0.009 0.35483,-0.004 0.40797,-0.0285 0.0531,-0.0247 0.17005,-0.0286 0.2598,-0.009 0.0898,0.02 0.12035,0.0391 0.068,0.0425 -0.15389,0.01 -0.1091,0.0938 0.068,0.12741 0.0897,0.017 0.16319,0.0561 0.16319,0.0869 0,0.0308 -0.0206,0.0438 -0.0459,0.029 -0.0623,-0.0365 -0.44367,0.0665 -0.44367,0.11989 0,0.0234 0.0965,0.0572 0.21447,0.0751 0.22962,0.0348 0.33214,0.12177 0.2207,0.18713 -0.0376,0.022 -0.0531,0.0635 -0.0345,0.0921 0.0186,0.0286 -0.004,0.0658 -0.0503,0.0826 -0.0539,0.0196 -0.0705,0.01 -0.0461,-0.0277 0.052,-0.0798 -0.73429,-0.0313 -0.87803,0.0542 -0.0872,0.0518 -0.0232,0.0589 0.35614,0.0396 0.48396,-0.0246 0.45116,0.0359 -0.0539,0.0995 -0.14987,0.0189 -0.27249,0.0545 -0.27249,0.0793 0,0.0247 -0.0259,0.045 -0.0576,0.045 -0.0317,0 -0.0415,-0.0248 -0.0217,-0.0551 z m 0.94969,-0.45441 c 0,-0.0682 -0.62401,-0.17015 -0.79854,-0.13052 -0.30547,0.0694 -0.25326,0.0985 0.22738,0.12695 0.26927,0.0159 0.50793,0.0333 0.53037,0.0387 0.0224,0.005 0.0408,-0.0104 0.0408,-0.0352 z m -1.10243,-0.94226 c 0.0369,-0.0353 0.0808,-0.0511 0.0975,-0.0352 0.0168,0.0159 -0.0134,0.0447 -0.0671,0.0641 -0.0775,0.028 -0.0838,0.0221 -0.0305,-0.0289 z m 0.19678,-0.0844 c 0.0216,-0.0332 -0.0141,-0.066 -0.0863,-0.0792 -0.0698,-0.0127 -0.0266,-0.0255 0.0999,-0.0295 0.12268,-0.004 0.30492,-0.0341 0.40497,-0.0672 0.1385,-0.0458 0.18694,-0.0458 0.20303,0 0.0116,0.0331 0.0742,0.0635 0.139,0.0675 0.0648,0.004 -0.0413,0.0242 -0.23572,0.0448 -0.19447,0.0206 -0.40043,0.0561 -0.45769,0.0789 -0.0706,0.0281 -0.0922,0.0231 -0.0672,-0.0153 z m 0.90565,-0.0671 c 0,-0.0301 0.0245,-0.0403 0.0544,-0.0228 0.0299,0.0175 0.0544,0.0421 0.0544,0.0547 0,0.0125 -0.0245,0.0228 -0.0544,0.0228 -0.0299,0 -0.0544,-0.0246 -0.0544,-0.0547 z m -1.03353,-0.22923 0.136,-0.0738 -0.14959,-0.002 c -0.16096,-0.002 -0.20121,-0.0752 -0.068,-0.12374 0.0449,-0.0163 0.0816,-0.004 0.0816,0.0269 0,0.0531 0.12549,0.0454 0.59837,-0.0368 0.0748,-0.013 0.10539,-0.01 0.068,0.007 -0.097,0.0434 -0.084,0.11278 0.0272,0.14545 0.0523,0.0154 0.003,0.0184 -0.11075,0.007 -0.11327,-0.0117 -0.30606,0.0123 -0.42841,0.0532 -0.27844,0.0932 -0.32987,0.0922 -0.1544,-0.003 z m 0.83408,-0.009 c 0,-0.0779 0.083,-0.088 0.19085,-0.0232 0.0539,0.0324 0.0384,0.0502 -0.0589,0.0678 -0.0861,0.0156 -0.13193,1e-4 -0.13193,-0.0447 z m -0.83408,-0.31252 c -0.21345,-0.036 -0.24139,-0.10024 -0.0857,-0.19704 0.0789,-0.0491 0.15906,-0.0745 0.17807,-0.0564 0.019,0.018 0.006,0.0328 -0.0289,0.0328 -0.0349,0 -0.0635,0.0232 -0.0635,0.0516 0,0.0284 0.0551,0.0516 0.1224,0.0516 0.12745,-5e-5 0.60541,-0.1572 0.67292,-0.22127 0.0606,-0.0575 -0.40918,-0.0431 -0.52569,0.016 -0.0821,0.0417 -0.0977,0.0373 -0.0742,-0.0209 0.0219,-0.0541 -0.011,-0.0716 -0.12361,-0.0657 -0.23023,0.012 -0.22359,-0.0809 0.015,-0.21052 l 0.21231,-0.1153 -0.20399,-8.8e-4 c -0.19859,-8.8e-4 -0.28336,-0.10306 -0.15021,-0.18114 0.0308,-0.0181 0.0399,0.003 0.0214,0.0486 -0.0364,0.09 0.0211,0.10239 0.141,0.0304 0.0501,-0.0301 0.0924,-0.0293 0.11277,0.002 0.02,0.0307 0.10905,0.0198 0.23088,-0.0285 0.23017,-0.0913 0.38731,-0.10276 0.23136,-0.0169 -0.10558,0.0581 -0.10558,0.0589 0,0.098 0.0894,0.0332 0.0819,0.0401 -0.0467,0.0431 -0.1785,0.004 -0.69004,0.20223 -0.69004,0.26709 0,0.0532 0.47536,4.4e-4 0.61662,-0.0683 0.0549,-0.0267 0.11407,-0.0352 0.13145,-0.0187 0.0174,0.0165 0.003,0.03 -0.0318,0.03 -0.13193,0 -0.0566,0.0916 0.0997,0.1213 0.20916,0.0397 0.20932,0.11897 3.3e-4,0.16253 -0.0896,0.0187 -0.18137,0.0633 -0.20399,0.0991 -0.0226,0.0358 -0.0901,0.0779 -0.14991,0.0933 -0.0598,0.0155 -0.14551,0.0392 -0.19039,0.0526 -0.0449,0.0135 -0.14279,0.0141 -0.21759,0.001 z m 0.89755,-0.0142 c -0.0185,-0.0284 0.005,-0.0516 0.0512,-0.0516 0.0466,0 0.0848,0.0232 0.0848,0.0516 0,0.0284 -0.023,0.0516 -0.0512,0.0516 -0.0281,0 -0.0663,-0.0232 -0.0848,-0.0516 z m -0.20059,-0.0869 c 0.0392,-0.0149 0.0862,-0.0131 0.10426,0.004 0.0181,0.0172 -0.014,0.0293 -0.0714,0.0271 -0.0634,-0.003 -0.0763,-0.0147 -0.0329,-0.0312 z m 10.12101,-0.4164 c 0.0542,-0.0954 0.75391,-0.75407 1.12205,-1.05624 1.90044,-1.55988 5.36164,-3.24099 6.6728,-3.24099 0.15966,0 0.46148,0.0465 0.67072,0.10324 0.62253,0.16894 1.30082,0.12576 1.92099,-0.12229 0.96316,-0.38523 1.35726,-0.53559 1.47878,-0.56421 l 0.13599,-0.032 -0.13599,0.0994 c -0.22294,0.16298 -1.19759,0.60699 -1.57749,0.71865 -0.67912,0.1996 -0.99641,0.2198 -1.57459,0.10028 -1.04443,-0.21592 -1.34976,-0.18289 -2.51875,0.27248 -2.08596,0.81256 -4.07033,1.98995 -5.5965,3.32057 -0.55339,0.48249 -0.7001,0.5809 -0.59801,0.40113 z m -9.9748,-0.1678 c -0.0185,-0.0284 0.005,-0.0516 0.0512,-0.0516 0.0466,0 0.0848,0.0232 0.0848,0.0516 0,0.0284 -0.0231,0.0516 -0.0512,0.0516 -0.0281,0 -0.0663,-0.0232 -0.0848,-0.0516 z m -0.66274,-0.31552 c 0.0856,-0.0317 0.14175,-0.085 0.12723,-0.12095 -0.0169,-0.0419 0.0304,-0.0658 0.13614,-0.0686 0.17511,-0.005 0.33431,-0.0988 0.28787,-0.17009 -0.0158,-0.0243 -0.10119,-0.0303 -0.18979,-0.0135 -0.10214,0.0194 -0.16108,0.009 -0.16108,-0.0275 0,-0.0319 -0.0428,-0.0588 -0.0952,-0.0596 -0.0846,-0.001 -0.0834,-0.008 0.0107,-0.0599 0.0793,-0.0436 0.11119,-0.0432 0.12693,0.002 0.0116,0.0329 0.0741,0.0602 0.13888,0.0607 0.0648,4.3e-4 0.15361,0.0222 0.19729,0.0485 0.0678,0.0407 0.0642,0.0637 -0.025,0.15721 -0.0825,0.0865 -0.0894,0.11836 -0.0332,0.15138 0.073,0.0428 -0.083,0.0862 -0.48364,0.13461 -0.18835,0.0228 -0.18875,0.0224 -0.0372,-0.0337 z m -0.34359,-0.14352 c 0,-0.0818 0.13446,-0.098 0.20642,-0.0249 0.0581,0.059 0.0465,0.071 -0.0683,0.071 -0.076,0 -0.13813,-0.0207 -0.13813,-0.0461 z m 0.16319,-0.36685 c 0,-0.0284 0.023,-0.0516 0.0512,-0.0516 0.0282,0 0.0663,0.0232 0.0848,0.0516 0.0185,0.0284 -0.005,0.0516 -0.0512,0.0516 -0.0466,0 -0.0848,-0.0232 -0.0848,-0.0516 z m 0.59836,-0.10623 c -0.10472,-0.0242 -0.23323,-0.0319 -0.28558,-0.017 -0.0524,0.0149 -0.0952,0.002 -0.0952,-0.0281 0,-0.0799 0.38455,-0.0641 0.54396,0.0223 0.15198,0.0824 0.11619,0.0874 -0.16318,0.0228 z m -0.55869,-0.13142 c -0.0727,-0.069 0.11393,-0.16418 0.35813,-0.18261 0.33,-0.0249 0.33295,0.0371 0.003,0.0724 -0.13833,0.0148 -0.26851,0.053 -0.28929,0.0849 -0.0208,0.0319 -0.0533,0.0433 -0.0723,0.0253 z m 11.09551,-0.90688 c -0.0712,-0.25674 -0.54616,-0.66967 -0.67996,-0.5912 -0.022,0.0129 -0.068,-0.0325 -0.10208,-0.10113 -0.0661,-0.13284 -0.0269,-0.16425 0.0792,-0.0636 0.0354,0.0336 0.0815,0.0448 0.10245,0.025 0.0209,-0.0199 0.009,-0.0636 -0.0263,-0.0972 -0.0354,-0.0336 -0.0642,-0.0855 -0.0641,-0.11528 1.5e-4,-0.0298 0.0812,0.0271 0.18016,0.12647 0.24039,0.24142 0.91117,0.73638 0.94914,0.70036 0.0166,-0.0157 8.7e-4,-0.12112 -0.0347,-0.23414 -0.0689,-0.21819 -0.33096,-0.42925 -0.72893,-0.58703 -0.24624,-0.0976 -0.26507,-0.15848 -0.0341,-0.11035 0.18242,0.038 0.17734,0.061 0.0628,-0.28502 -0.0141,-0.0426 0.0471,0.0227 0.13608,0.14508 0.0889,0.12239 0.22009,0.2609 0.29147,0.3078 0.49637,0.32622 0.82203,0.64824 0.47977,0.47443 -0.094,-0.0478 -0.1053,-0.0354 -0.10605,0.11614 -0.001,0.29696 -0.0711,0.33758 -0.29757,0.17364 -0.19969,-0.14454 -0.31817,-0.14929 -0.19442,-0.008 0.0367,0.0419 0.0574,0.11796 0.0461,0.16901 -0.0157,0.0706 -0.0298,0.0597 -0.0589,-0.0452 z m -1.53645,-0.0977 c -0.0197,-0.0303 -0.0242,-0.0661 -0.01,-0.0797 0.0143,-0.0135 0.0404,0.0112 0.0581,0.055 0.0368,0.091 0.005,0.10696 -0.0482,0.0246 z M 65.27861,113.7402 c -0.50575,-0.17664 -0.89747,-0.534 -0.95516,-0.87139 -0.0563,-0.32896 0.0249,-0.52692 0.39895,-0.97351 0.41061,-0.49021 0.5963,-0.8342 0.65623,-1.21563 0.0326,-0.20756 0.0586,-0.25737 0.11647,-0.22322 0.0916,0.054 0.0932,0.40054 0.003,0.66499 -0.10546,0.3095 -0.24096,0.53225 -0.53266,0.87568 -0.41831,0.49249 -0.46233,0.83409 -0.14873,1.15397 0.3056,0.31173 0.50476,0.3811 1.09335,0.38082 0.44049,-2.2e-4 0.60847,-0.0236 0.88307,-0.12276 0.1865,-0.0674 0.36697,-0.15436 0.40103,-0.19331 0.0341,-0.0389 0.098,-0.0708 0.14207,-0.0708 0.0441,0 0.14511,-0.0426 0.22453,-0.0947 0.47218,-0.30974 1.17898,-0.45792 1.54509,-0.32392 0.25688,0.094 0.1657,0.14892 -0.27919,0.16809 -0.40897,0.0177 -0.46366,0.0356 -1.18313,0.38749 -0.41488,0.20295 -0.88729,0.40615 -1.04979,0.45155 -0.35386,0.0989 -1.04131,0.10235 -1.31524,0.007 z m 24.93049,-0.3408 c -0.0809,-0.22138 -0.33615,-0.46202 -0.6464,-0.6094 -0.26666,-0.12666 -0.37362,-0.24065 -0.15018,-0.16004 0.12445,0.0449 0.14043,0.0404 0.11128,-0.0317 -0.025,-0.0619 -0.0111,-0.0758 0.0526,-0.0526 0.0477,0.0173 0.10914,0.0315 0.13661,0.0315 0.0275,0 0.0499,0.0231 0.0499,0.0513 0,0.0282 0.17747,0.21542 0.39438,0.416 0.24994,0.23113 0.35105,0.35331 0.27608,0.33359 -0.0937,-0.0247 -0.12232,-0.007 -0.13764,0.0873 -0.0168,0.10269 -0.0283,0.0939 -0.0867,-0.066 z m -24.54372,-0.001 c 0,-0.0257 0.049,-0.0468 0.1088,-0.0468 0.0598,0 0.10879,0.009 0.10879,0.0198 0,0.0109 -0.049,0.0319 -0.10879,0.0468 -0.0598,0.0149 -0.1088,0.006 -0.1088,-0.0198 z m 0.48957,0.003 c 0,-0.0275 0.0367,-0.05 0.0816,-0.05 0.0449,0 0.0816,0.009 0.0816,0.0203 0,0.0112 -0.0367,0.0336 -0.0816,0.05 -0.0449,0.0163 -0.0816,0.007 -0.0816,-0.0203 z M 65.396,113.354 c -0.0435,-0.0261 -0.0983,-0.0361 -0.12177,-0.0223 -0.0235,0.0138 -0.0282,-0.011 -0.0104,-0.055 0.0415,-0.10268 0.0571,-0.10107 0.2235,0.0231 0.13731,0.10249 0.0628,0.14675 -0.0914,0.0542 z m 1.07513,0.0137 c 0.0393,-0.0149 0.0862,-0.0131 0.10426,0.004 0.0181,0.0172 -0.014,0.0293 -0.0714,0.0271 -0.0634,-0.003 -0.0763,-0.0147 -0.0329,-0.0312 z m 21.97615,-0.15486 c 0.0393,-0.0149 0.0862,-0.0131 0.10426,0.004 0.0181,0.0172 -0.014,0.0293 -0.0714,0.0271 -0.0634,-0.003 -0.0763,-0.0147 -0.0329,-0.0312 z m 2.05925,-0.20513 c -0.10757,-0.19624 -0.28002,-0.33948 -0.60754,-0.5046 -0.19536,-0.0985 -0.22862,-0.12863 -0.11806,-0.107 0.1401,0.0274 0.15065,0.0195 0.11736,-0.088 l -0.0366,-0.11815 0.0857,0.11075 c 0.12351,0.15955 0.90549,0.64198 0.97815,0.60346 0.0337,-0.0179 0.0296,-2.2e-4 -0.009,0.0393 -0.0599,0.0611 -0.0942,0.0587 -0.23118,-0.0158 -0.17597,-0.0958 -0.19019,-0.086 -0.10203,0.0703 0.0324,0.0573 0.0464,0.11605 0.0312,0.13045 -0.0152,0.0144 -0.0638,-0.0398 -0.10803,-0.12056 z m -21.01377,-0.0952 c -0.0538,-0.13307 0.0349,-0.35084 0.25651,-0.62999 0.11739,-0.14783 0.21343,-0.29053 0.21343,-0.3171 0,-0.0265 0.0367,-0.0617 0.0816,-0.078 0.0449,-0.0163 0.0816,-0.0611 0.0816,-0.0994 0,-0.0384 0.0551,-0.1196 0.12239,-0.18055 0.2445,-0.22135 0.33411,-0.32405 0.34517,-0.39556 0.0177,-0.11419 0.20458,-0.33472 0.28523,-0.33651 0.0455,-8.9e-4 0.0199,0.0581 -0.068,0.15719 -0.0775,0.0873 -0.14083,0.17828 -0.14083,0.20208 0,0.0238 0.11493,0.13927 0.25539,0.25659 0.18267,0.15258 0.29496,0.20894 0.39437,0.19796 0.21477,-0.0237 0.19872,-0.18763 -0.0493,-0.50304 -0.12084,-0.15369 -0.21971,-0.32322 -0.21971,-0.37673 0,-0.18559 0.36039,-0.83935 0.54313,-0.98527 0.20444,-0.16324 0.35285,-0.15674 0.62132,0.0272 0.15253,0.1045 0.1607,0.10498 0.23118,0.0135 0.085,-0.11024 0.0968,-0.4527 0.0204,-0.58824 -0.029,-0.0514 -0.17705,-0.16915 -0.32904,-0.2617 -0.2647,-0.16118 -0.48861,-0.45565 -0.48861,-0.64259 0,-0.16697 0.35211,-0.044 0.60907,0.21271 0.19954,0.19934 0.32529,0.49866 0.36518,0.86922 l 0.0333,0.30971 0.097,-0.1365 c 0.17196,-0.24184 0.17494,-0.46693 0.0106,-0.80075 -0.21669,-0.4401 -0.25217,-0.62388 -0.1606,-0.83185 0.0971,-0.22047 0.18173,-0.19735 0.33729,0.0921 0.21147,0.39349 0.11139,1.23722 -0.20383,1.7184 -0.0898,0.13714 -0.16334,0.25683 -0.16334,0.26598 0,0.009 0.0854,0.0318 0.18972,0.0504 0.46874,0.0834 0.33939,0.53035 -0.27897,0.96382 -0.163,0.11427 -0.40699,0.24667 -0.5422,0.29422 -0.14263,0.0502 -0.30264,0.15713 -0.38113,0.25477 -0.0744,0.0926 -0.18213,0.16831 -0.2394,0.16831 -0.0573,0 -0.13031,0.0465 -0.16233,0.10323 -0.032,0.0568 -0.0882,0.10324 -0.12482,0.10324 -0.0366,0 -0.0972,0.0465 -0.13454,0.10324 -0.0374,0.0568 -0.1028,0.10323 -0.14541,0.10323 -0.0426,0 -0.093,0.0465 -0.112,0.10324 -0.019,0.0568 -0.0614,0.10324 -0.0943,0.10324 -0.0329,0 -0.0985,0.0358 -0.14593,0.0796 -0.19808,0.18295 -0.68431,0.48822 -0.77764,0.48822 -0.0554,0 -0.11479,-0.0349 -0.13203,-0.0775 z m 0.14356,-0.0773 c 0,-0.0284 -0.0245,-0.0516 -0.0544,-0.0516 -0.0299,0 -0.0544,0.0232 -0.0544,0.0516 0,0.0284 0.0245,0.0516 0.0544,0.0516 0.0299,0 0.0544,-0.0232 0.0544,-0.0516 z m 0.23119,-0.0301 c 0.0387,-0.0367 -0.15526,-0.22798 -0.23119,-0.22798 -0.0791,0 -0.0669,0.0562 0.0356,0.16369 0.0942,0.0988 0.14249,0.11465 0.19555,0.0643 z m 0.22261,-0.15963 c 0.0471,-0.0447 -0.17866,-0.27482 -0.26968,-0.27482 -0.12468,0 -0.13562,0.0976 -0.0229,0.20458 0.11226,0.10653 0.22566,0.13375 0.29259,0.0702 z m 0.23615,-0.19996 c 0.0287,-0.0819 -0.30335,-0.2945 -0.40314,-0.25817 -0.0721,0.0263 -0.0604,0.0574 0.07,0.18646 0.15226,0.1508 0.29469,0.18146 0.33319,0.0717 z m 0.21637,-0.15538 c 0.0351,-0.0868 -0.22698,-0.38405 -0.33867,-0.38405 -0.0356,0 -0.0931,0.0325 -0.12782,0.0721 -0.0504,0.0576 -0.0218,0.10439 0.14172,0.23228 0.23244,0.18182 0.27886,0.1932 0.32477,0.0797 z m 0.27211,-0.20679 c 0.0204,-0.0505 -0.0352,-0.14725 -0.14837,-0.25809 -0.19257,-0.18853 -0.24762,-0.20653 -0.3773,-0.12334 -0.0677,0.0434 -0.0409,0.0874 0.15658,0.2573 0.26168,0.22518 0.32026,0.24488 0.36909,0.12413 z m 0.26888,-0.25043 c 0.0173,-0.0428 -0.0567,-0.14928 -0.17849,-0.2567 -0.22214,-0.19591 -0.27063,-0.21248 -0.39809,-0.13602 -0.067,0.0402 -0.0437,0.0852 0.13343,0.25731 0.21961,0.21341 0.39049,0.26563 0.44315,0.13541 z m 1.0248,-0.67639 c 0.32961,-0.18331 0.73669,-0.5327 0.79751,-0.68451 0.069,-0.17215 -0.0252,-0.26933 -0.26093,-0.26933 -0.14297,0 -0.2291,-0.042 -0.36343,-0.17714 -0.36569,-0.36793 -0.62989,-0.28847 -0.93169,0.28023 -0.22103,0.41648 -0.2315,0.51857 -0.0774,0.7551 0.20642,0.31694 0.39853,0.33892 0.83599,0.0957 z m -0.24186,-0.15244 c 0,-0.0135 0.0673,-0.0586 0.14959,-0.10028 0.0823,-0.0417 0.23425,-0.14585 0.33772,-0.23146 0.19273,-0.15944 0.29282,-0.17654 0.16273,-0.0278 -0.15993,0.18287 -0.65004,0.45396 -0.65004,0.35955 z m 0.44151,-2.13224 c -0.0813,-0.14421 -0.33982,-0.37257 -0.42173,-0.37257 -0.12245,0 -0.085,0.0895 0.11803,0.28218 0.20789,0.19727 0.39547,0.2531 0.3037,0.0904 z m 0.57514,-0.49764 c -0.0696,-0.3291 -0.17535,-0.42751 -0.23143,-0.21547 -0.0393,0.14856 0.17793,0.63482 0.25184,0.56377 0.0244,-0.0234 0.0152,-0.18014 -0.0204,-0.3483 z m 17.94367,4.36723 c -0.0456,-0.13645 -0.24252,-0.30026 -0.6391,-0.53173 -0.18876,-0.11018 -0.30181,-0.20034 -0.25122,-0.20035 0.0506,-2e-5 0.10711,0.0232 0.12561,0.0516 0.0647,0.0993 0.14165,0.0549 0.0835,-0.0482 -0.0309,-0.0549 -0.0564,-0.10718 -0.0565,-0.11614 -9e-5,-0.009 0.18827,0.15253 0.41859,0.35888 0.23031,0.20635 0.44458,0.36715 0.47614,0.35735 0.0857,-0.0266 0.10243,-0.2886 0.0241,-0.37809 -0.0792,-0.0906 -0.46099,-0.28396 -0.52302,-0.26492 -0.0231,0.007 -0.10264,-0.0276 -0.17661,-0.077 -0.13402,-0.0896 -0.13407,-0.0899 -0.0126,-0.0899 0.10103,0 0.1164,-0.0209 0.0896,-0.12205 -0.023,-0.0869 -0.005,-0.13183 0.0611,-0.15603 0.0797,-0.029 0.083,-0.0221 0.0221,0.0474 -0.06,0.0686 -0.0531,0.0986 0.0435,0.19024 0.0631,0.0599 0.15897,0.11227 0.21311,0.11649 0.0541,0.004 0.23306,0.13052 0.39761,0.28069 0.2744,0.25041 0.28622,0.27024 0.14271,0.2394 -0.12522,-0.0269 -0.15022,-0.0182 -0.12516,0.0438 0.0181,0.0449 -0.0344,0.14417 -0.12502,0.2362 -0.14063,0.14286 -0.15954,0.14912 -0.18854,0.0624 z m -1.30868,-0.37078 c 0.0185,-0.0284 0.0444,-0.0516 0.0576,-0.0516 0.0132,0 0.024,0.0233 0.024,0.0516 0,0.0284 -0.0259,0.0516 -0.0576,0.0516 -0.0317,0 -0.0425,-0.0232 -0.024,-0.0516 z m 2.02511,-0.007 c -0.0517,-0.0275 -0.094,-0.0944 -0.094,-0.14881 0,-0.16533 -0.31387,-0.45194 -0.61538,-0.56194 -0.15519,-0.0566 -0.23553,-0.10416 -0.17854,-0.10564 0.1019,-0.003 0.1019,-0.005 0,-0.11449 -0.088,-0.0949 -0.0709,-0.091 0.11299,0.0258 0.11914,0.0757 0.23639,0.13761 0.26056,0.13761 0.0887,0 0.47954,0.44294 0.51012,0.57806 0.0173,0.0766 0.0716,0.14685 0.12047,0.15607 0.0508,0.01 0.0651,0.031 0.0334,0.05 -0.0306,0.0183 -0.0979,0.0108 -0.14959,-0.0167 z m 0.10534,-0.2858 c -0.0404,-0.23839 -0.29125,-0.54102 -0.542,-0.65394 -0.10076,-0.0454 -0.18321,-0.11849 -0.18321,-0.1625 0,-0.0635 0.0254,-0.0574 0.12304,0.0297 0.0677,0.0603 0.15466,0.0997 0.19332,0.0875 0.0386,-0.0122 0.18939,0.11304 0.33497,0.27837 0.14558,0.16533 0.2867,0.3006 0.31359,0.3006 0.0799,0 -0.1618,-0.5341 -0.28713,-0.63458 -0.0635,-0.0509 -0.14817,-0.0807 -0.18812,-0.0661 -0.04,0.0146 -0.0726,0.006 -0.0726,-0.0192 0,-0.0251 0.0306,-0.0563 0.068,-0.0694 0.0544,-0.0189 0.0544,-0.0373 0,-0.0921 -0.0374,-0.0376 -0.068,-0.0888 -0.068,-0.11378 0,-0.0582 0.36382,0.2916 0.56527,0.5435 0.21162,0.26462 0.26717,0.24296 0.13231,-0.0516 -0.13441,-0.29361 -0.26942,-0.44231 -0.49928,-0.54989 l -0.1711,-0.0801 0.14959,-0.001 c 0.0823,-4.4e-4 0.14959,-0.0252 0.14959,-0.0546 0,-0.0368 0.0327,-0.0368 0.10522,0 0.14702,0.0747 0.22116,0.0666 0.22116,-0.024 0,-0.0426 0.0222,-0.0774 0.0493,-0.0774 0.0271,0 0.039,0.0407 0.0265,0.0903 -0.0126,0.0497 -0.004,0.11479 0.0187,0.14468 0.0844,0.11048 0.45366,0.34603 0.48937,0.31214 0.0576,-0.0547 -0.14606,-0.37493 -0.27646,-0.43481 l -0.11701,-0.0537 0.12114,-0.004 c 0.0718,-0.002 0.15727,0.0488 0.20993,0.12511 0.0488,0.0707 0.11476,0.11338 0.14649,0.0948 0.0366,-0.0215 0.0444,-8.8e-4 0.0213,0.0563 -0.0201,0.0496 -0.0364,0.13758 -0.0364,0.19559 0,0.0894 -0.0246,0.1008 -0.16149,0.0748 -0.15488,-0.0294 -0.16017,-0.0244 -0.12919,0.12259 0.0186,0.0882 0.009,0.15324 -0.0221,0.15324 -0.0299,0 -0.0689,-0.0688 -0.0866,-0.15283 -0.0362,-0.1716 -0.38872,-0.56982 -0.50448,-0.56982 -0.11004,0 -0.0925,0.0497 0.0568,0.16117 0.18715,0.13969 0.37451,0.44587 0.39633,0.64766 0.0212,0.19562 0.007,0.20295 -0.1728,0.091 l -0.13011,-0.0809 0.0596,0.18409 c 0.0705,0.21793 0.0251,0.28325 -0.13208,0.19011 -0.10288,-0.061 -0.11128,-0.0575 -0.0858,0.0349 0.0155,0.0564 0.0102,0.13022 -0.0118,0.16406 -0.0234,0.036 -0.054,-0.0205 -0.0736,-0.13623 z m -22.6651,-0.26038 c -0.3607,-0.26553 -0.86408,-0.48904 -1.65909,-0.73666 -1.39286,-0.43383 -2.09179,-0.90037 -2.52558,-1.68582 -0.15466,-0.28003 -0.20883,-0.72715 -0.11434,-0.94364 0.11337,-0.25971 0.337,-0.31865 1.2507,-0.32965 0.44583,-0.005 0.77981,0.007 0.74219,0.0265 -0.0376,0.0199 -0.37977,0.0681 -0.76031,0.10703 -0.83085,0.085 -0.93402,0.14536 -0.928,0.54286 0.005,0.30728 0.24932,0.68563 0.71269,1.10209 0.46094,0.41428 0.81963,0.61492 1.59546,0.89241 0.84356,0.30172 1.38197,0.58744 1.71922,0.91235 0.14283,0.1376 0.24892,0.25975 0.23577,0.27145 -0.0132,0.0117 -0.13407,-0.0598 -0.26871,-0.15893 z m 10.64633,-0.8424 c -0.29088,-0.0693 -0.48144,-0.17154 -0.68149,-0.3657 -0.23139,-0.22458 -0.21959,-0.2786 0.0263,-0.12028 0.95597,0.61561 2.25677,0.15947 2.90215,-1.01767 0.69002,-1.25858 0.67082,-2.75981 -0.0611,-4.7751 -0.12197,-0.33582 -0.30549,-0.78268 -0.40782,-0.993 -0.3447,-0.70847 -0.1097,-0.44435 0.29659,0.33333 0.33799,0.64696 0.5908,1.34832 0.74558,2.06846 0.12848,0.59778 0.14026,0.7454 0.11683,1.46485 -0.0298,0.91625 -0.12137,1.29646 -0.48472,2.01312 -0.29679,0.58537 -0.84204,1.11649 -1.32183,1.28759 -0.37387,0.13332 -0.83157,0.17559 -1.13049,0.1044 z m 13.04908,-0.22714 c -0.0342,-0.12928 -0.23765,-0.23102 -0.29814,-0.14909 -0.0194,0.0262 -0.11607,0.0187 -0.22439,-0.0174 l -0.19039,-0.0634 0.30889,-0.003 c 0.33134,-0.003 0.47986,0.077 0.47986,0.25886 0,0.13709 -0.036,0.12474 -0.0758,-0.0261 z m -4.85761,-0.10227 c -0.14524,-0.11859 -0.15245,-0.14546 -0.14889,-0.55489 0.003,-0.33255 0.0439,-0.55336 0.18038,-0.97226 0.0972,-0.2981 0.18971,-0.58498 0.20566,-0.63752 0.017,-0.056 0.0491,-0.0765 0.0775,-0.0495 0.0284,0.027 -0.0325,0.323 -0.14713,0.71496 -0.23259,0.7952 -0.26275,1.19686 -0.10259,1.36622 0.10026,0.10602 0.14292,0.11284 0.54396,0.087 0.33794,-0.0218 0.64788,-0.0971 1.38711,-0.33696 1.36128,-0.44171 1.9037,-0.54254 2.91021,-0.54102 0.89127,0.001 1.15984,0.0459 2.42064,0.40153 0.64482,0.18188 0.70947,0.19043 1.25112,0.16551 0.46436,-0.0213 0.70848,-0.0664 1.30551,-0.24061 0.91158,-0.26604 1.5091,-0.36339 2.17586,-0.35448 l 0.51676,0.007 -0.51676,0.0434 c -0.64684,0.0543 -1.03351,0.13742 -2.01955,0.43398 -0.86298,0.25955 -1.4426,0.35294 -1.89699,0.30564 -0.16455,-0.0171 -0.65412,-0.13268 -1.08793,-0.25678 -1.06083,-0.30347 -1.365,-0.35042 -2.25745,-0.34844 -0.9523,0.002 -1.30247,0.07 -2.75107,0.53374 -0.96927,0.31026 -1.17105,0.35824 -1.50647,0.35824 -0.33104,0 -0.40945,-0.0181 -0.53991,-0.12463 z M 70.6856,110.21541 c -0.17762,-0.5407 -0.19417,-0.68696 -0.20882,-1.84536 -0.0114,-0.89773 -0.0328,-1.152 -0.12456,-1.47985 -0.1939,-0.69252 -0.50077,-1.14706 -0.89744,-1.32928 -0.29492,-0.13547 -0.48446,-0.13541 -0.77981,2.6e-4 -0.32735,0.15038 -0.5907,0.45755 -0.96972,1.13109 -0.4716,0.83804 -0.81802,1.15074 -1.3518,1.22016 -0.28227,0.0367 -0.39493,-0.0573 -0.12603,-0.10515 0.26605,-0.0474 0.661,-0.30485 0.85504,-0.55745 0.0937,-0.12202 0.34294,-0.50059 0.55379,-0.84127 0.61827,-0.99896 1.06626,-1.31557 1.64422,-1.16201 0.49072,0.13037 0.96303,0.66717 1.16031,1.31873 0.16645,0.54973 0.17616,0.63242 0.23013,1.95963 0.0299,0.73605 0.0841,1.38548 0.13345,1.60015 0.096,0.4177 0.0979,0.43877 0.0394,0.43877 -0.024,0 -0.0952,-0.15679 -0.15815,-0.34842 z"
       id="path1" /><text
       xml:space="preserve"
       style="font-size:22.4828px;font-family:'Canela Trial';-inkscape-font-specification:'Canela Trial, Normal';text-align:center;writing-mode:lr-tb;direction:ltr;text-anchor:middle;fill:none;fill-opacity:0;stroke:#f7f7f7;stroke-width:0.974882;stroke-linecap:round;stroke-linejoin:round"
       x="113.06158"
       y="117.70452"
       id="text1"
       transform="scale(1.004225,0.99579281)"><tspan
         id="tspan1"
         style="stroke-width:0.974881"
         x="113.06158"
         y="117.70452" /></text></g><text
     xml:space="preserve"
     style="font-size:7.67246px;font-family:'Canela Trial';-inkscape-font-specification:'Canela Trial, Normal';text-align:center;writing-mode:lr-tb;direction:ltr;text-anchor:middle;display:inline;fill:#000000;fill-opacity:1;stroke:#000000;stroke-width:0.332402;stroke-linecap:round;stroke-linejoin:round;stroke-dasharray:none;stroke-opacity:0.0359937"
     x="63.177158"
     y="24.481722"
     id="text2"
     transform="scale(0.97156105,1.0292714)"
     inkscape:export-filename="Logotipo.png"
     inkscape:export-xdpi="96"
     inkscape:export-ydpi="96"><tspan
       id="tspan2"
       style="font-style:normal;font-variant:normal;font-weight:normal;font-stretch:normal;font-size:7.67246px;font-family:Allura;-inkscape-font-specification:'Allura, Normal';font-variant-ligatures:normal;font-variant-caps:normal;font-variant-numeric:normal;font-variant-east-asian:normal;fill:#000000;fill-opacity:1;stroke:#000000;stroke-width:0.332402;stroke-dasharray:none;stroke-opacity:0.0359937"
       x="63.177158"
       y="24.481722">maxilofacialstudio</tspan></text></svg>
