<?xml version="1.0" encoding="UTF-8" standalone="no"?>
<!-- Created with Inkscape (http://www.inkscape.org/) -->

<svg
   width="3.3462238in"
   height="1.6070887in"
   viewBox="0 0 84.99409 40.820054"
   version="1.1"
   id="svg1"
   xml:space="preserve"
   sodipodi:docname="Logotipo.svg"
   inkscape:export-filename="Logotipo.svg"
   inkscape:export-xdpi="96"
   inkscape:export-ydpi="96"
   xmlns:inkscape="http://www.inkscape.org/namespaces/inkscape"
   xmlns:sodipodi="http://sodipodi.sourceforge.net/DTD/sodipodi-0.dtd"
   xmlns:xlink="http://www.w3.org/1999/xlink"
   xmlns="http://www.w3.org/2000/svg"
   xmlns:svg="http://www.w3.org/2000/svg"><sodipodi:namedview
     id="namedview1"
     pagecolor="#ffffff"
     bordercolor="#000000"
     borderopacity="0.25"
     inkscape:showpageshadow="2"
     inkscape:pageopacity="0.0"
     inkscape:pagecheckerboard="0"
     inkscape:deskcolor="#d1d1d1"
     inkscape:document-units="mm"
     inkscape:export-bgcolor="#ffffff00"
     inkscape:lockguides="false"
     inkscape:zoom="0.80965911"
     inkscape:cx="249.48771"
     inkscape:cy="209.34736"
     inkscape:window-width="1920"
     inkscape:window-height="1057"
     inkscape:window-x="1912"
     inkscape:window-y="38"
     inkscape:window-maximized="1"
     inkscape:current-layer="svg1"><inkscape:page
       x="0"
       y="0"
       width="84.994087"
       height="40.820053"
       id="page2"
       margin="0"
       bleed="0" /></sodipodi:namedview><defs
     id="defs1"><linearGradient
       id="linearGradient44"><stop
         style="stop-color:#1a1a1a;stop-opacity:1;"
         offset="1"
         id="stop44" /><stop
         style="stop-color:#1a1a1a;stop-opacity:0;"
         offset="1"
         id="stop45" /></linearGradient><linearGradient
       xlink:href="#linearGradient44"
       id="linearGradient45"
       x1="116.36842"
       y1="75.809845"
       x2="120.88422"
       y2="273.69733"
       gradientUnits="userSpaceOnUse"
       gradientTransform="matrix(0.36223975,0,0,0.37570674,-24.090128,-24.482223)" /></defs><path
     style="fill:url(#linearGradient45);fill-opacity:1;stroke-width:0.368912"
     d="m 24.685026,38.863532 c -2.232392,-2.442709 -2.993348,-3.125685 -4.014432,-3.603041 -0.505129,-0.236144 -0.936932,-0.346223 -1.571287,-0.40056 -0.920942,-0.07886 -1.726372,0.02248 -3.661425,0.460876 -1.351673,0.30622 -2.672421,0.444081 -3.919976,0.409179 -0.857327,-0.02393 -1.222034,-0.08568 -1.8795927,-0.317965 -1.092396,-0.385894 -1.734581,-1.023016 -2.06154,-2.045291 -0.08826,-0.275943 -0.10458,-0.419119 -0.102575,-0.899677 0.0025,-0.679935 0.0552,-0.902018 0.402257,-1.706997 0.403956,-0.936869 0.355565,-1.143776 -0.474708,-2.029783 -0.423074,-0.451456 -0.554346,-0.692455 -0.550765,-1.011118 0.0033,-0.290737 0.131635,-0.545022 0.465987,-0.923157 l 0.272065,-0.307685 -0.126181,-0.102679 c -0.604396,-0.491808 -0.750742,-0.741026 -0.752978,-1.282223 -0.0016,-0.356989 0.0083,-0.392666 0.209342,-0.798787 0.286992,-0.578501 0.368676,-0.865908 0.366464,-1.289413 -0.0025,-0.393516 -0.103087,-0.665831 -0.323914,-0.873061 -0.0684,-0.06422 -0.348733,-0.21389 -0.622878,-0.332597 -0.836609,-0.362243 -1.267546,-0.67853 -1.630471,-1.196664 -0.264541,-0.377676 -0.332404,-0.57914 -0.331068,-0.982758 8.25e-4,-0.281939 0.02203,-0.390928 0.106445,-0.549527 0.30898,-0.580622 1.471905,-1.973998 1.588581,-1.90336 0.02418,0.01465 0.03168,0.0068 0.01667,-0.01661 -0.01502,-0.02376 0.418519,-0.50656 0.96336,-1.072874 1.884599,-1.958872 2.489169,-2.757037 2.7272903,-3.600571 0.166363,-0.589317 0.103112,-1.149916 -0.2492193,-2.208848 -0.277346,-0.8335865 -0.32964,-1.1110965 -0.329517,-1.7486105 1.98e-4,-0.986275 0.200811,-1.92954 0.7386223,-3.473004 0.5865914,-1.68344 1.6606294,-3.683499 2.5732384,-4.79186197 0.22119,-0.268636 0.283468,-0.333312 0.185126,-0.192266 -1.271103,1.82303897 -1.926613,3.08059797 -2.580531,4.95055497 -0.4870197,1.392691 -0.6938707,2.388991 -0.6933997,3.339657 3.54e-4,0.706321 0.05223,0.976421 0.3568513,1.8579065 0.09998,0.289297 0.211983,0.66929 0.2489154,0.84442 0.08652,0.410252 0.08587,1.081662 -0.0017,1.456451 -0.1850284,0.794537 -1.1462187,2.029842 -3.0682607,3.943286 -2.00111,1.992155 -2.503855,2.715339 -2.374035,3.414966 0.05528,0.298095 0.161248,0.496024 0.442901,0.827531 0.316257,0.372233 0.680601,0.623955 1.365196,0.943214 0.904457,0.421792 1.077363,0.648815 1.072751,1.408604 -0.0033,0.501535 -0.06395,0.716243 -0.394279,1.389535 -0.231223,0.471335 -0.25742,0.67055 -0.134588,1.023647 0.08396,0.241356 0.460887,0.663259 0.755866,0.846055 l 0.195225,0.12098 -0.338354,0.376109 c -0.383024,0.425753 -0.503421,0.644301 -0.504848,0.916386 -0.0017,0.249414 0.132905,0.496792 0.44578,0.821655 0.345713,0.358964 0.55423,0.621988 0.680321,0.858149 0.08604,0.161162 0.105232,0.262997 0.103548,0.549527 -0.0016,0.325706 -0.01724,0.382649 -0.208088,0.770537 -0.357569,0.726956 -0.416902,0.975084 -0.414921,1.735298 0.0017,0.608804 0.01106,0.683487 0.123565,0.972861 0.177444,0.456439 0.326547,0.696118 0.632127,1.016075 0.798243,0.835844 2.0031257,1.207081 3.7003057,1.140105 1.300855,-0.05136 2.374951,-0.19643 3.598602,-0.486154 1.72732,-0.408974 2.65318,-0.519999 3.60423,-0.432208 1.728797,0.159595 2.705375,0.866248 5.23753,3.789933 2.891929,3.339081 2.334225,2.801086 0.136091,0.39585 z M 10.590628,33.45935 c -0.384584,-0.115011 -0.7133924,-0.382037 -0.8696317,-0.706253 -0.08918,-0.185035 -0.09466,-0.258926 -0.08485,-1.143009 0.0058,-0.519854 0.02731,-1.004535 0.04794,-1.077072 0.04126,-0.145126 0.2719423,-0.32161 0.4718137,-0.36094 0.119432,-0.02351 0.124705,-0.03424 0.09661,-0.197172 -0.03234,-0.187658 0.05561,-0.479068 0.115851,-0.383629 0.01865,0.02964 0.06815,0.04037 0.11119,0.02419 0.0646,-0.02427 0.07335,-0.06762 0.05248,-0.259191 -0.02219,-0.203636 -0.01997,-0.212382 0.01931,-0.07614 0.02442,0.08466 0.06345,0.214623 0.08671,0.28888 0.02327,0.07427 0.04233,0.29101 0.04233,0.481691 v 0.346684 l 0.280713,0.265663 c 0.723118,0.684347 2.473764,2.18822 2.773346,2.382411 0.167296,0.108443 0.198979,0.113553 0.524833,0.08466 0.615435,-0.05459 1.216696,-0.205841 2.040087,-0.513067 0.390829,-0.145824 0.443825,-0.167959 1.20309,-0.50231 1.099393,-0.484143 1.217918,-0.503775 3.298823,-0.546273 l 1.705521,-0.03483 0.516136,-0.134582 c 0.92812,-0.242012 1.54712,-0.553291 1.97526,-0.993318 0.247206,-0.254063 0.337215,-0.389531 0.455731,-0.685948 0.08727,-0.218259 0.100042,-0.363743 0.131231,-1.494718 0.05181,-1.878371 0.219787,-2.823357 0.649586,-3.65415 0.142089,-0.274657 0.189762,-0.258756 0.06675,0.02231 -0.192007,0.438758 -0.389666,1.204355 -0.500691,1.939343 -0.02921,0.193441 -0.05858,0.915509 -0.06526,1.604618 -0.01097,1.134372 -0.0212,1.280963 -0.107386,1.549326 -0.289458,0.901159 -1.315237,1.589543 -2.844056,1.908589 -0.236703,0.0494 -0.786552,0.0764 -2.072572,0.101784 -2.019097,0.03986 -2.10343,0.05255 -3.007639,0.452981 -1.109484,0.491332 -2.147317,0.855134 -2.871912,1.006707 -0.353452,0.07393 -0.625254,0.09563 -1.27913,0.10209 -0.45668,0.0043 -0.911107,0.03041 -1.009846,0.05749 -0.475013,0.130451 -1.695703,0.220039 -1.952372,0.143286 z m 1.569736,-0.181484 c 0.381192,-0.04718 0.494832,-0.07605 0.494832,-0.125767 0,-0.01908 -0.186826,-0.175071 -0.415162,-0.346641 -0.228335,-0.17157 -0.475797,-0.367294 -0.549915,-0.434934 -0.07409,-0.06762 -0.338436,-0.295344 -0.587366,-0.506006 -0.24893,-0.210654 -0.587176,-0.513544 -0.751658,-0.673071 l -0.299054,-0.290056 -3.63e-4,0.255435 c -4.37e-4,0.292696 -0.06535,0.911736 -0.1404984,1.338946 -0.04794,0.27274 -0.04489,0.301084 0.04555,0.425531 0.1062654,0.146182 0.3317294,0.296673 0.5837374,0.389633 0.17454,0.06439 0.962626,0.04829 1.619902,-0.03304 z m 1.571997,-0.103598 c 0,-0.01013 -0.139053,-0.117523 -0.309005,-0.238606 -0.309896,-0.220771 -0.465245,-0.349493 -1.170277,-0.969633 -0.958599,-0.843185 -1.491641,-1.343979 -1.551798,-1.457933 -0.06246,-0.118332 -0.07096,-0.121066 -0.189021,-0.06073 -0.06799,0.03475 -0.168582,0.06328 -0.223558,0.06345 -0.05635,1.54e-4 -0.131412,0.04735 -0.172139,0.108189 -0.06856,0.10249 -0.06609,0.115708 0.04843,0.262776 0.153129,0.196643 0.639437,0.621374 1.748377,1.526978 0.840669,0.686528 0.889588,0.719207 1.113534,0.74388 0.300441,0.03313 0.705487,0.04556 0.705487,0.02172 z M 9.8900246,32.132183 c 0.03977,-0.232695 0.07228,-0.662204 0.07228,-0.954457 0,-0.483709 0.0085,-0.539119 0.09453,-0.617652 0.05611,-0.05119 0.08061,-0.108282 0.06031,-0.140459 -0.02566,-0.04063 0.0058,-0.04786 0.125034,-0.02887 0.269302,0.04284 0.348436,-0.04855 0.348436,-0.402417 v -0.297925 h -0.139951 -0.139943 l 0.02706,0.225617 0.02706,0.225618 -0.267998,0.120486 c -0.1473972,0.06626 -0.2911522,0.162875 -0.3194532,0.214674 -0.1091513,0.199769 -0.1050593,2.231468 0.0041,2.116441 0.01988,-0.02087 0.06865,-0.228369 0.108342,-0.461064 z M 23.85326,32.946598 c 1.550833,-0.586345 2.024749,-0.772419 2.760244,-1.083749 1.446178,-0.612168 2.409943,-1.110773 3.029537,-1.567348 1.281028,-0.943981 1.773995,-1.911485 2.264553,-4.444447 0.317702,-1.640413 0.588249,-2.788379 0.742252,-3.149396 0.100513,-0.235633 0.476293,-0.90511 0.49678,-0.885044 0.0093,0.0091 -0.04332,0.168563 -0.11699,0.354339 -0.249186,0.628597 -0.513727,1.768744 -0.82835,3.570201 -0.282734,1.618849 -0.459428,2.275185 -0.806898,2.997253 -0.402356,0.836107 -0.928146,1.408229 -1.841117,2.003363 -0.756964,0.493444 -2.368722,1.212915 -3.814966,1.702961 -0.608679,0.206242 -2.158035,0.661497 -2.237087,0.657332 -0.02855,-0.0017 0.129878,-0.07146 0.352042,-0.155465 z m -4.985367,-1.842073 c 0.03985,-0.279171 0.128401,-0.541436 0.150373,-0.445452 0.03028,0.132171 -0.03259,0.448543 -0.106931,0.538429 -0.06353,0.07682 -0.06667,0.07001 -0.0434,-0.09298 z m -2.249685,-0.108129 c -0.387545,-0.23146 -0.365326,-0.765035 0.04233,-1.015752 0.188319,-0.115828 0.50267,-0.09591 0.704158,0.04463 0.203896,0.142213 0.150719,0.14866 -0.124754,0.01516 l -0.236851,-0.114814 -0.20572,0.08389 c -0.257602,0.105071 -0.388717,0.27033 -0.38068,0.479783 0.02079,0.541709 0.717301,0.751579 1.015398,0.305956 0.09008,-0.134675 0.147155,-0.116927 0.07121,0.02214 -0.137329,0.251329 -0.605411,0.346027 -0.885018,0.179039 z m 1.187199,-0.268542 c -0.09257,-0.04786 -0.168302,-0.10634 -0.168302,-0.129949 0,-0.0597 0.02211,-0.05502 0.212684,0.04505 0.09211,0.04837 0.213872,0.08792 0.270572,0.08792 0.172964,0 0.392883,-0.113426 0.522415,-0.269444 l 0.123021,-0.148192 -0.06906,0.137639 c -0.03795,0.07571 -0.1319,0.189456 -0.208732,0.252778 -0.172238,0.141957 -0.436787,0.151343 -0.682623,0.02427 z m -1.011083,-0.02146 c -0.204466,-0.140288 -0.07112,-0.459113 0.191982,-0.459113 0.106189,0 0.173055,0.02947 0.221867,0.0977 0.09648,0.134922 0.08758,0.222364 -0.03399,0.334257 -0.122641,0.112847 -0.242453,0.121407 -0.379847,0.02717 z m 0.340094,-0.07222 c 0.07071,-0.06933 0.06824,-0.174918 -0.0066,-0.275041 -0.132501,-0.177498 -0.442372,0.0534 -0.336711,0.250861 0.04744,0.0887 0.261908,0.103811 0.343196,0.02419 z m 0.842501,-0.2801 c -0.03878,-0.03798 -0.07055,-0.09294 -0.07055,-0.122104 0,-0.09081 0.136091,-0.248434 0.214508,-0.248434 0.05825,0 0.05223,0.0155 -0.02756,0.07018 -0.117493,0.08065 -0.115653,0.225438 0.0041,0.298776 0.175827,0.107967 0.354731,-0.191005 0.186438,-0.311543 -0.07137,-0.0511 -0.07203,-0.0574 -0.0058,-0.0574 0.07847,0 0.167246,0.125188 0.167246,0.235761 0,0.105148 -0.130397,0.203857 -0.269293,0.203857 -0.07055,0 -0.159977,-0.03109 -0.198765,-0.06907 z m 0.929448,-0.15061 c 0.20874,-0.112575 0.945976,-0.35181 1.084129,-0.35181 0.05569,0 0.137914,0.03977 0.182791,0.0883 0.04488,0.04855 0.157114,0.110471 0.249417,0.137563 0.24044,0.07052 0.481102,-0.04965 0.602985,-0.301221 0.120818,-0.249336 0.298683,-0.290668 0.545113,-0.126652 0.284541,0.189387 0.667828,0.132818 0.839571,-0.123919 0.167469,-0.250351 0.05272,-0.775009 -0.198343,-0.906601 -0.245399,-0.128646 -0.613307,-0.01 -0.76868,0.247991 -0.102906,0.170838 -0.151,0.175624 -0.08616,0.0086 0.0599,-0.154298 0.294285,-0.334326 0.479642,-0.368393 0.245002,-0.04505 0.520838,0.07784 0.63966,0.284946 0.279351,0.486835 -0.07871,1.09586 -0.613926,1.044104 -0.107484,-0.01039 -0.254796,-0.06192 -0.327363,-0.11444 -0.168789,-0.122241 -0.369113,-0.107678 -0.388857,0.02828 -0.0074,0.05297 -0.0769,0.156624 -0.153839,0.230277 -0.234301,0.224382 -0.583306,0.231536 -0.843243,0.01729 l -0.133731,-0.110216 -0.572085,0.183809 c -0.314648,0.101102 -0.602383,0.192768 -0.639413,0.203712 -0.03705,0.0109 0.009,-0.02129 0.102336,-0.07163 z m -1.282183,-0.219775 c 0.122287,0.174253 0.341563,-0.351845 0.507613,-0.351845 0.06733,0 0.204325,0.02836 0.304499,0.06294 0.173121,0.05979 0.215828,0.05425 0.862774,-0.112949 0.374352,-0.09674 0.690164,-0.166562 0.701806,-0.155158 0.03795,0.03713 -0.490649,0.21044 -0.949994,0.311483 -0.4471,0.09834 -0.449567,0.0984 -0.644165,0.01414 -0.312008,-0.13511 -0.474518,-0.07733 -0.774208,0.275202 l -3.52526,-5.055251 z m 2.784378,-0.22348 c -0.117823,-0.0672 -0.104515,-0.325374 0.0212,-0.411632 0.134251,-0.09211 0.241232,-0.08613 0.349072,0.0195 0.233055,0.228284 -0.07871,0.55847 -0.370276,0.392138 z m 0.349566,-0.131107 c 0.01609,-0.02547 0.01675,-0.09455 0.0016,-0.153625 -0.03243,-0.126679 -0.202914,-0.147459 -0.314335,-0.03833 -0.09682,0.09484 -0.08837,0.177456 0.02616,0.256048 0.09787,0.06711 0.221108,0.0396 0.286521,-0.06413 z m 0.947749,-0.253501 c -0.111956,-0.121185 -0.09291,-0.294535 0.04398,-0.399998 0.148706,-0.114576 0.260762,-0.115522 0.375449,-0.0034 0.112138,0.10984 0.115975,0.31483 0.0074,0.410823 -0.108945,0.09657 -0.334558,0.09253 -0.427117,-0.0077 z m 0.337347,-0.03637 c 0.153789,-0.136328 0.07847,-0.366868 -0.119894,-0.366868 -0.267387,0 -0.270844,0.429645 -0.0033,0.43829 0.02277,7.49e-4 0.0783,-0.03143 0.123425,-0.07146 z m -2.027381,-0.01848 c 0,-0.02802 0.07838,-0.127786 0.174251,-0.221657 0.149308,-0.14625 0.202304,-0.170651 0.370276,-0.170515 0.113178,1.03e-4 0.255003,0.03543 0.335565,0.08355 0.07673,0.04582 0.177724,0.09293 0.224408,0.104645 0.06444,0.01618 0.05792,0.02214 -0.02731,0.02487 -0.06172,0.0017 -0.1627,-0.0247 -0.224409,-0.05928 -0.06172,-0.03458 -0.201174,-0.06354 -0.309904,-0.06439 -0.173558,-0.0017 -0.218773,0.0201 -0.370284,0.176135 -0.09491,0.09774 -0.172577,0.154758 -0.172577,0.126712 z M 19.387495,29.2023 c 0,-0.129361 0.207428,-0.725279 0.3061,-0.879407 0.114044,-0.178137 0.464263,-0.405602 0.624487,-0.405602 0.105802,0 0.835446,-0.291572 1.374066,-0.549093 0.901585,-0.43105 1.76185,-1.033475 2.323927,-1.627383 0.540946,-0.571585 1.101233,-1.692391 1.207851,-2.41623 l 0.03903,-0.265101 -0.01799,0.329717 c -0.04769,0.875813 -0.563084,1.894179 -1.345625,2.658933 -0.208104,0.203372 -0.59593,0.507369 -0.916858,0.718679 -0.65188,0.42921 -1.813377,0.997542 -2.450537,1.199066 -0.246851,0.0781 -0.501565,0.177608 -0.566021,0.22118 -0.139655,0.09441 -0.327322,0.446261 -0.424732,0.796309 -0.0387,0.139027 -0.08911,0.252786 -0.112039,0.252786 -0.02294,0 -0.04167,-0.01525 -0.04167,-0.03381 z m -8.918082,-1.295996 c -0.05058,-0.05442 -0.115702,-0.143959 -0.144688,-0.198994 -0.07467,-0.141864 -0.225555,-0.833578 -0.227444,-1.042937 -0.0033,-0.323279 -0.02954,-0.361017 -0.2709364,-0.383731 -0.4800063,-0.04514 -0.5791983,-0.254064 -0.4962523,-1.045041 0.03845,-0.366553 0.04018,-0.623095 0.0066,-0.933019 -0.07946,-0.72895 -0.147873,-0.953912 -0.363411,-1.194374 -0.211125,-0.235523 -0.165761,-0.281947 0.223946,-0.229186 0.242139,0.03279 0.396044,0.02887 0.6220203,-0.01593 0.1901274,-0.03764 0.5328034,-0.05519 0.9341774,-0.04795 0.791997,0.01439 0.823631,0.0017 0.827913,-0.33975 0.0017,-0.138176 0.02186,-0.290805 0.04472,-0.339163 0.02748,-0.05808 0.03251,0.01942 0.01502,0.228206 -0.0146,0.17387 -0.01518,0.334181 -8.25e-4,0.356248 0.02615,0.04148 0.403866,-0.0017 0.709265,-0.08151 l 0.164977,-0.04301 -0.02483,-0.251969 c -0.01361,-0.138576 -0.0434,-0.271744 -0.06609,-0.295923 -0.02269,-0.02419 -0.186776,-0.05561 -0.364583,-0.06984 l -0.323288,-0.02581 0.342339,-0.0068 c 0.227973,-0.0051 0.357174,0.01124 0.386745,0.04787 0.02442,0.03023 0.05842,0.162627 0.0755,0.29422 0.01708,0.131592 0.03969,0.252888 0.05025,0.26953 0.01048,0.01661 0.155719,0.0026 0.322701,-0.03211 0.332289,-0.06822 2.890097,-0.498682 2.963373,-0.498682 0.02492,0 0.05899,-0.08868 0.07558,-0.197086 0.01658,-0.108401 0.05421,-0.212255 0.08364,-0.230796 0.02946,-0.01848 0.09071,-0.105565 0.136223,-0.193381 0.115191,-0.222237 0.333023,-0.472246 1.121893,-1.28759 0.376167,-0.38879 0.803961,-0.835477 0.950645,-0.992637 0.146693,-0.157168 0.415838,-0.439149 0.598101,-0.626637 0.246504,-0.253553 0.325399,-0.363359 0.307973,-0.428632 -0.03036,-0.113631 0.02054,-0.112609 0.09349,0.0017 0.03144,0.04931 0.07352,0.07972 0.09361,0.06754 0.02005,-0.01218 0.158591,0.07427 0.307842,0.192096 0.198616,0.156768 0.284697,0.201123 0.321109,0.165455 0.02731,-0.02683 0.04975,-0.07273 0.04975,-0.102142 0,-0.06422 -0.436729,-0.412586 -0.5172,-0.412586 -0.03119,0 -0.06766,-0.02811 -0.08119,-0.06251 -0.01345,-0.03441 -0.06106,-0.0712 -0.105794,-0.08185 -0.04472,-0.01065 -0.03078,-0.01107 0.03094,-8.51e-4 0.343461,0.05621 0.477563,-0.03713 0.280309,-0.195102 -0.09305,-0.07452 -0.104639,-0.09875 -0.04736,-0.09891 0.04175,-1.28e-4 0.0882,0.01925 0.103244,0.0431 0.03457,0.05485 0.214746,0.03015 0.236017,-0.03236 0.0087,-0.02581 -0.0049,-0.05979 -0.03127,-0.07554 -0.08947,-0.05417 -0.05041,-0.116084 0.04249,-0.06737 0.0552,0.02896 0.08976,0.03058 0.08976,0.0043 0,-0.02351 0.13633,0.09037 0.302957,0.25311 0.166627,0.162738 0.352232,0.329215 0.412447,0.369943 0.12694,0.08584 0.08652,0.164995 -0.04365,0.08539 -0.115629,-0.07069 -0.148261,-0.0672 -0.116982,0.01269 0.04546,0.116006 -0.01477,0.201702 -0.107526,0.153063 -0.122707,-0.0643 -0.129712,-0.05672 -0.101981,0.110709 0.02442,0.147442 -0.03375,0.212417 -0.09846,0.109909 -0.05355,-0.08483 -0.0996,-0.04275 -0.08437,0.07691 0.01444,0.113674 0.01337,0.114525 -0.01873,0.01422 -0.04241,-0.132819 -0.133921,-0.167541 -0.173723,-0.06592 -0.02046,0.05221 0.0083,0.108605 0.08974,0.177387 0.06584,0.05544 0.11972,0.115666 0.11972,0.133755 0,0.01806 -0.02426,0.0091 -0.05388,-0.01984 -0.07624,-0.07461 -0.125175,-0.06541 -0.128714,0.02419 -0.0025,0.06123 -0.01295,0.05681 -0.05173,-0.02197 -0.05743,-0.11662 -0.11656,-0.127019 -0.155604,-0.02734 -0.01799,0.04599 0.01064,0.100668 0.07995,0.152893 0.07673,0.05774 0.08786,0.08159 0.03845,0.08227 -0.03828,3.74e-4 -0.09254,-0.02155 -0.120628,-0.04906 -0.03812,-0.03739 -0.196356,0.08202 -0.626096,0.472595 -1.179641,1.072082 -2.211896,1.951369 -2.290825,1.951369 -0.03135,0 -0.0571,0.0201 -0.0571,0.04454 0,0.07103 0.197312,0.349945 0.247981,0.350541 0.122015,0.0017 1.398711,-0.235863 1.900895,-0.353326 0.311571,-0.0729 1.020918,-0.269837 1.576329,-0.437694 1.312901,-0.396787 1.548729,-0.448237 2.08701,-0.455391 0.502514,-0.0068 0.641756,0.04616 0.741155,0.281198 0.08436,0.199497 0.01865,0.403465 -0.227107,0.704558 -0.123202,0.150968 -0.23567,0.320017 -0.249928,0.375674 -0.01642,0.06413 0.02046,0.194191 0.100942,0.355208 0.161792,0.323901 0.197617,0.761109 0.08586,1.047749 l -0.07558,0.193944 0.15803,0.154792 c 0.187238,0.1834 0.226199,0.342544 0.197717,0.807611 -0.0335,0.546512 -0.300045,0.943095 -0.855653,1.272932 -0.565163,0.335501 -1.142066,0.424484 -1.648227,0.254242 -0.269368,-0.0906 -0.245093,-0.14665 0.03094,-0.07154 0.79505,0.216249 1.898551,-0.248391 2.232614,-0.94008 0.134787,-0.279077 0.189161,-0.723311 0.119465,-0.976055 -0.07921,-0.287423 -0.179952,-0.378306 -0.457901,-0.413241 -0.133145,-0.01669 -0.304499,-0.04463 -0.380779,-0.06209 -0.125241,-0.02853 -0.144226,-0.01848 -0.195728,0.103258 -0.07162,0.169441 -0.407587,0.476427 -0.563241,0.514685 -0.108623,0.02674 -0.196215,0.01967 -0.662993,-0.05323 -0.231001,-0.03611 -0.407175,0.04539 -0.547713,0.253442 l -0.117625,0.174099 0.124895,0.250052 c 0.106271,0.212757 0.126082,0.310709 0.132889,0.656855 0.01205,0.61411 -0.136924,0.848909 -0.702268,1.106711 -0.887584,0.404733 -1.804954,0.343396 -2.313466,-0.154681 -0.178194,-0.174551 -0.199936,-0.180539 -0.199936,-0.0551 0,0.319404 -0.25402,0.697497 -0.46861,0.697497 -0.30837,0 -0.698473,-0.343506 -0.976991,-0.860286 l -0.156371,-0.290149 -0.02649,0.388381 c -0.04125,0.604784 -0.212932,0.975885 -0.493479,1.066571 -0.411605,0.133057 -0.91449,-0.319353 -1.228396,-1.105075 l -0.12803,-0.320469 -0.02632,0.527545 c -0.01444,0.290149 -0.06007,0.639984 -0.101379,0.777402 -0.08802,0.292908 -0.265069,0.519471 -0.405937,0.519471 -0.16001,0 -0.445211,-0.209981 -0.635823,-0.468132 l -0.177048,-0.23979 -0.02847,0.30341 c -0.03358,0.358138 -0.09123,0.48158 -0.242098,0.518671 -0.173649,0.04267 -0.338469,-0.01857 -0.492101,-0.182838 -0.166933,-0.178511 -0.202271,-0.186756 -0.202271,-0.04718 0,0.180411 -0.163261,0.335841 -0.351093,0.334249 -0.09078,-7.58e-4 -0.203789,-0.03006 -0.251125,-0.06515 -0.0769,-0.05698 -0.09272,-0.05451 -0.148409,0.02334 -0.0828,0.115785 -0.244334,0.110487 -0.357991,-0.01175 z m 0.30139,-0.0557 c 0.0467,-0.0551 0.02459,-0.134012 -0.127328,-0.454302 -0.101115,-0.213174 -0.232924,-0.554083 -0.292899,-0.757574 -0.06791,-0.230438 -0.132089,-0.369994 -0.170134,-0.369994 -0.07566,0 -0.06395,0.247412 0.03515,0.742713 0.08942,0.447104 0.174911,0.680898 0.294615,0.805703 0.112188,0.116977 0.182213,0.125963 0.260597,0.03347 z m 0.571516,-7.5e-4 c 0.05413,-0.03713 0.122468,-0.146114 0.151841,-0.242149 0.04876,-0.159374 0.03853,-0.219638 -0.116767,-0.690811 -0.0936,-0.283906 -0.175901,-0.538132 -0.182889,-0.564934 -0.0066,-0.02674 -0.09864,-0.06217 -0.203658,-0.07861 -0.134308,-0.02104 -0.233063,-0.07367 -0.332998,-0.177446 l -0.142064,-0.147545 -0.113888,0.139803 -0.113879,0.139794 0.120686,0.394122 c 0.167634,0.547415 0.407125,1.031371 0.581508,1.1751 0.168055,0.138508 0.216479,0.145756 0.352108,0.05272 z m 1.030679,-0.196243 c 0.0321,-0.06251 0.05677,-0.273226 0.0571,-0.48859 7.26e-4,-0.325613 -0.02137,-0.436509 -0.156198,-0.791318 -0.08628,-0.226946 -0.156973,-0.447249 -0.157089,-0.48956 -3.13e-4,-0.111203 -0.02525,-0.09879 -0.2377,0.118409 -0.134952,0.137954 -0.253402,0.211675 -0.40319,0.250912 -0.116643,0.03057 -0.212089,0.06916 -0.212089,0.08578 0,0.01661 0.04241,0.16583 0.09419,0.331583 0.12534,0.401028 0.380194,0.87112 0.546631,1.008308 0.17459,0.14389 0.38724,0.132299 0.468322,-0.02555 z m 1.234914,-0.254115 c 0.05033,-0.11145 0.11897,-0.381772 0.152543,-0.600721 0.0613,-0.399947 0.08362,-1.035527 0.0363,-1.035527 -0.01394,0 -0.07599,0.05902 -0.137947,0.13109 -0.132766,0.154553 -0.395854,0.243111 -0.60697,0.204308 -0.204598,-0.03756 -0.691493,-0.355685 -0.787096,-0.514208 -0.203096,-0.336778 -0.19874,0.03756 0.0066,0.59407 0.296075,0.80118 0.61395,1.291149 0.940925,1.450362 0.176867,0.08613 0.279781,0.0264 0.395293,-0.229374 z m 1.748517,-0.215142 c 0.183756,-0.162176 0.274896,-0.459922 0.296257,-0.967844 0.01139,-0.270561 0.0074,-0.542859 -0.0083,-0.605099 -0.02888,-0.112839 -0.02946,-0.11295 -0.173855,-0.03833 -0.329665,0.17031 -0.839366,0.04097 -1.218413,-0.309209 l -0.16383,-0.151343 -0.133079,0.287483 c -0.145381,0.314064 -0.153863,0.348762 -0.09052,0.370573 0.02343,0.0077 0.136049,0.212485 0.250299,0.454276 0.260869,0.552047 0.494907,0.860201 0.747318,0.983984 0.206488,0.101264 0.360285,0.09365 0.494123,-0.02444 z m 1.736124,-0.337826 c 0.137873,-0.143745 0.188583,-0.35221 0.252841,-1.039325 l 0.05553,-0.593482 0.0058,0.412449 c 0.005,0.328475 0.02409,0.441356 0.09546,0.554407 0.273147,0.43289 1.0119,0.64207 1.735217,0.491324 0.624437,-0.130136 1.072775,-0.410184 1.206737,-0.753751 0.106074,-0.272059 0.07649,-0.81025 -0.05949,-1.082497 -0.124243,-0.248689 -0.384806,-0.513075 -0.589957,-0.5986 -0.151908,-0.06336 -0.155513,-0.06217 -0.291736,0.08962 -0.07583,0.08457 -0.19586,0.189004 -0.266669,0.232108 -0.125662,0.07648 -0.128046,0.085 -0.09974,0.355668 0.01592,0.15251 0.01163,0.277289 -0.0097,0.277289 -0.0212,0 -0.10213,-0.07742 -0.179738,-0.171996 -0.07764,-0.0946 -0.247618,-0.224255 -0.377784,-0.288131 -0.144804,-0.07103 -0.188765,-0.10634 -0.113252,-0.09093 0.0679,0.01388 0.123425,0.0095 0.123425,-0.0098 0,-0.01925 0.08144,-0.02734 0.180959,-0.01806 0.09953,0.0093 0.240696,-0.0077 0.313692,-0.03696 0.239226,-0.09707 0.626178,-0.603574 0.628084,-0.822157 3.63e-4,-0.04326 0.02228,-0.10835 0.0486,-0.144623 0.03647,-0.05016 0.04257,-0.02904 0.02558,0.08792 -0.01229,0.08466 -0.03581,0.187121 -0.05223,0.227763 -0.06304,0.155883 0.598158,0.229178 0.834382,0.09249 0.181957,-0.105284 0.283039,-0.389956 0.285482,-0.804007 0.0016,-0.299748 -0.01122,-0.35273 -0.120951,-0.493938 -0.157171,-0.202239 -0.360655,-0.267163 -0.767235,-0.244772 -0.686328,0.03781 -1.453415,0.470968 -1.736595,0.980671 -0.110207,0.198381 -0.119159,0.247301 -0.0918,0.501637 0.0283,0.262955 0.04373,0.29353 0.229953,0.456567 0.19015,0.166443 0.192403,0.17111 0.04736,0.09847 -0.150241,-0.07529 -0.151941,-0.07503 -0.127634,0.01601 0.02739,0.102704 0.02607,0.103785 -0.07921,0.06422 -0.05041,-0.01899 -0.05817,-0.03816 -0.02385,-0.05894 0.03771,-0.02282 0.03688,-0.06115 -0.0033,-0.147748 -0.06568,-0.141208 -0.113458,-0.14849 -0.153954,-0.02351 -0.01898,0.0586 -0.0074,0.10749 0.03061,0.13121 0.04868,0.03023 0.04653,0.0379 -0.01097,0.03849 -0.03952,3.75e-4 -0.133764,0.09827 -0.209466,0.217535 -0.132461,0.208721 -0.465806,0.472595 -0.496656,0.39316 -0.0083,-0.02121 -0.07104,-0.0385 -0.139597,-0.0385 -0.06856,0 -0.340664,-0.107516 -0.604693,-0.238921 -0.308708,-0.153642 -0.486383,-0.220337 -0.497761,-0.186841 -0.0097,0.02862 -0.03886,0.133117 -0.06469,0.23215 -0.02582,0.09903 -0.107617,0.26207 -0.181743,0.362303 -0.07409,0.100234 -0.134779,0.2035 -0.134779,0.229467 0,0.08662 0.303791,0.692652 0.470641,0.938871 0.311546,0.459735 0.698357,0.631288 0.914745,0.405688 z m -6.920709,-0.728814 c 0.102922,-0.04582 0.205431,-0.119524 0.227808,-0.163896 0.02236,-0.04437 0.03729,-0.34774 0.03317,-0.674153 -0.0066,-0.505334 -0.02219,-0.625905 -0.106091,-0.811699 -0.125628,-0.278106 -0.216537,-0.375282 -0.3510854,-0.375282 -0.2595493,0 -0.4821093,0.461855 -0.5626133,1.167512 -0.06469,0.566637 -0.01378,0.785407 0.204234,0.878282 0.1945073,0.08287 0.3332713,0.07767 0.5546037,-0.02078 z m 1.519505,-0.05945 c 0.09936,-0.06473 0.216396,-0.177004 0.260085,-0.249447 0.245753,-0.40751 0.03828,-1.303942 -0.397512,-1.717686 -0.130365,-0.123766 -0.168822,-0.137631 -0.30988,-0.111714 -0.20987,0.03858 -0.453049,0.278429 -0.601269,0.593073 -0.09929,0.210755 -0.115966,0.307949 -0.117583,0.685216 -0.0025,0.517614 0.08403,0.73991 0.337808,0.87066 0.222643,0.114712 0.592853,0.08338 0.828351,-0.07009 z m 1.722403,-0.09492 c 0.310605,-0.15733 0.587902,-0.66349 0.587902,-1.073138 0,-0.115683 -0.03243,-0.303579 -0.07211,-0.417551 -0.128846,-0.370385 -0.67745,-0.863531 -0.960646,-0.863531 -0.250819,0 -0.583199,0.316576 -0.813548,0.774855 l -0.135348,0.269283 0.07748,0.382249 c 0.07533,0.371612 0.08399,0.387862 0.310919,0.583832 0.434724,0.375419 0.738234,0.479273 1.0053,0.344001 z m 2.114329,-0.524854 c 0.293848,-0.190477 0.422034,-0.424578 0.441737,-0.806733 0.01559,-0.302882 0.005,-0.349179 -0.146181,-0.649173 -0.251637,-0.498725 -0.535179,-0.668711 -0.924738,-0.554382 -0.197782,0.05808 -0.526078,0.389531 -0.750577,0.75789 -0.143574,0.235573 -0.144548,0.240956 -0.0938,0.522937 0.06246,0.347229 0.236752,0.551094 0.642697,0.751869 0.324451,0.160464 0.558471,0.154153 0.830867,-0.0224 z m 2.037299,-0.514966 c 0.06592,-0.05085 0.1843,-0.214026 0.262989,-0.362686 0.127526,-0.240931 0.143195,-0.310905 0.14421,-0.643978 8.25e-4,-0.356043 -0.0066,-0.385247 -0.161669,-0.618896 -0.101024,-0.152161 -0.216083,-0.26683 -0.303179,-0.302166 -0.17624,-0.07154 -0.557374,-0.04301 -0.772599,0.05774 -0.259294,0.121407 -0.650321,0.489961 -0.732005,0.689926 -0.06848,0.167704 -0.06848,0.198475 3.63e-4,0.429781 0.04084,0.137027 0.07979,0.270689 0.08671,0.297023 0.0066,0.02632 0.237338,0.159876 0.512126,0.296749 0.559585,0.278728 0.761699,0.311569 0.963005,0.15647 z m 1.507945,-0.108759 c 0,-0.150449 -0.0066,-0.156674 -0.145868,-0.145347 -0.0802,0.0068 -0.16407,0.02087 -0.186314,0.03202 -0.0401,0.02001 0.23379,0.267077 0.298518,0.269351 0.01848,7.5e-4 0.03366,-0.06958 0.03366,-0.156001 z m -8.46929,-0.368401 c 0.118162,-0.251202 0.401613,-0.51931 0.584569,-0.552934 0.229293,-0.04216 0.413866,0.07282 0.606533,0.377761 0.09041,0.14309 0.17449,0.259574 0.186825,0.25885 0.01238,-7.49e-4 0.06947,-0.09953 0.126949,-0.219553 0.05751,-0.120027 0.204755,-0.325681 0.327289,-0.457001 0.257041,-0.275483 0.462563,-0.364995 0.673019,-0.293139 0.232048,0.07921 0.568116,0.350865 0.722111,0.583654 l 0.146635,0.221666 0.05957,-0.142988 c 0.09299,-0.223208 0.397942,-0.641057 0.540328,-0.740371 0.184927,-0.128978 0.494468,-0.200084 0.704677,-0.161861 0.13048,0.02368 0.234549,0.08983 0.391118,0.248426 0.117336,0.118851 0.223369,0.216104 0.235638,0.216104 0.01229,0 0.02228,-0.04165 0.02228,-0.09248 0,-0.05562 0.120794,-0.210586 0.302949,-0.388688 0.646715,-0.632335 1.358496,-0.652333 1.690777,-0.04752 0.115265,0.209819 0.136965,0.229008 0.179523,0.15871 0.118846,-0.19632 0.392868,-0.486392 0.593158,-0.627915 0.280936,-0.198492 0.503034,-0.292397 0.901602,-0.381193 0.595163,-0.132589 0.958624,-0.07818 1.172125,0.175547 l 0.131487,0.15624 0.104646,-0.205245 c 0.134465,-0.263705 0.384393,-0.483156 0.731443,-0.642232 0.392455,-0.179891 0.63518,-0.204275 0.879993,-0.08842 0.231694,0.109653 0.224128,0.108478 0.224128,0.03458 0,-0.03202 0.111082,-0.183868 0.246851,-0.337426 0.200769,-0.227082 0.24685,-0.308766 0.24685,-0.437557 0,-0.328721 -0.274012,-0.474971 -0.788721,-0.420983 -0.329904,0.03458 -0.534832,0.08627 -2.079956,0.524309 -1.601271,0.453969 -2.917819,0.734238 -4.67151,0.994468 -0.600468,0.0891 -2.357046,0.40251 -2.825046,0.504056 -1.218957,0.264454 -2.00819,0.343651 -2.442097,0.245027 -0.123978,-0.02819 -0.2244,-0.02155 -0.354203,0.02325 -0.11133,0.03849 -0.3692874,0.06379 -0.6691677,0.06558 l -0.487992,0.0034 0.09054,0.112737 c 0.138459,0.172413 0.272668,0.651694 0.301695,1.077387 0.02607,0.382437 0.06997,0.456729 0.124935,0.211531 0.01601,-0.07128 0.101231,-0.191619 0.189458,-0.267486 0.2651923,-0.22807 0.4956997,-0.128143 0.6717577,0.291231 0.04489,0.106919 0.09171,0.19396 0.104052,0.193432 0.01238,-3.74e-4 0.05875,-0.07818 0.10317,-0.172592 z m 9.779634,-0.120086 c 0.06923,-0.06498 0.125884,-0.132172 0.125884,-0.149325 0,-0.0172 -0.106041,-0.03279 -0.23563,-0.03475 -0.129605,-0.0017 -0.306191,-0.02376 -0.392421,-0.04855 -0.192973,-0.05527 -0.224714,-0.05596 -0.224714,-0.0043 0,0.02231 0.06568,0.06192 0.145868,0.08803 0.0802,0.02615 0.206462,0.09617 0.280514,0.155695 0.07401,0.05953 0.143641,0.108929 0.154631,0.109798 0.01097,7.5e-4 0.07665,-0.05161 0.145868,-0.116543 z m 1.381318,-0.276906 c 0.169779,-0.08483 0.269953,-0.176476 0.192923,-0.176476 -0.02096,0 -0.118046,0.04088 -0.215836,0.09078 -0.196066,0.100106 -0.400202,0.09437 -0.741699,-0.02087 -0.175984,-0.05936 -0.197684,-0.0586 -0.248773,0.0095 -0.0505,0.06728 -0.02995,0.07708 0.210761,0.100864 0.146701,0.01448 0.279871,0.03918 0.295935,0.05493 0.05941,0.05817 0.337256,0.02598 0.506689,-0.05868 z m 0.02987,-0.199675 c 0.229136,-0.131525 0.4897,-0.449856 0.562176,-0.686792 0.02847,-0.09309 0.06667,-0.169245 0.08482,-0.169245 0.03309,0 -0.0086,0.218634 -0.06906,0.362073 -0.03853,0.09147 0.122592,0.165472 0.360342,0.165472 0.23695,0 0.312446,-0.14866 0.311588,-0.613539 -7.18e-4,-0.337749 -0.01543,-0.403464 -0.147279,-0.651864 -0.260506,-0.490932 -0.505434,-0.54796 -1.104599,-0.257189 -0.565262,0.274325 -0.833986,0.610856 -0.834976,1.045645 -2.89e-4,0.129336 -0.02962,0.342365 -0.06526,0.473413 -0.03564,0.131039 -0.05404,0.255239 -0.04092,0.276002 0.04893,0.07759 0.315952,0.160099 0.529156,0.163565 0.159597,0.0026 0.273905,-0.02708 0.414047,-0.107541 z m -5.284495,-1.93224 c 0.207238,-0.03569 0.384724,-0.07273 0.394394,-0.08219 0.02748,-0.02691 -0.08554,-0.248409 -0.126784,-0.248409 -0.147625,0 -0.695725,0.11553 -0.722276,0.152246 -0.05388,0.07452 -0.03878,0.243418 0.02178,0.24335 0.03086,-3.5e-5 0.225663,-0.0293 0.432909,-0.06498 z m 0.150546,-0.403184 c 0.165621,-0.0448 0.02748,-0.279103 -0.164548,-0.279103 -0.106544,0 -0.201644,0.08304 -0.293039,0.255972 -0.05371,0.101562 -0.05289,0.101937 0.162543,0.07324 0.119077,-0.01584 0.251851,-0.03841 0.295044,-0.05008 z m 0.302446,-0.26689 c 0.04967,-0.04165 0.09059,-0.115828 0.09097,-0.164859 3.63e-4,-0.06311 0.01139,-0.07265 0.03738,-0.03253 0.02632,0.04062 0.20619,-0.09287 0.638893,-0.474358 0.331224,-0.292022 0.890034,-0.779675 1.241795,-1.083681 0.351761,-0.303997 0.63957,-0.585663 0.63957,-0.625914 0,-0.04028 -0.04546,-0.109815 -0.100992,-0.154587 -0.05553,-0.0448 -0.168112,-0.14315 -0.250159,-0.218592 l -0.149177,-0.137179 -0.09113,0.1099 c -0.109811,0.132427 -0.837038,0.892165 -2.312252,2.415609 l -0.233212,0.240837 0.126849,0.05229 c 0.06972,0.0287 0.140555,0.07401 0.157321,0.10054 0.04282,0.06788 0.09967,0.0603 0.204193,-0.02742 z m 2.812884,-2.542653 c 0.03375,-0.08622 -0.174176,-0.306178 -0.394401,-0.41716 -0.259376,-0.130698 -0.244879,-0.04199 0.03672,0.224894 0.290185,0.274998 0.319137,0.290566 0.357652,0.192266 z m 0.493694,-0.445001 c -0.06832,-0.129182 -0.426935,-0.497558 -0.484329,-0.497558 -0.01815,0 -0.04703,0.04327 -0.06419,0.09616 -0.025,0.07716 0.0033,0.122778 0.141932,0.230804 0.0952,0.0741 0.234087,0.187667 0.30865,0.252471 0.154061,0.133935 0.194293,0.100285 0.09791,-0.08185 z m 0.284499,-0.03228 c 0,-0.01005 -0.03894,-0.10732 -0.08653,-0.216079 -0.08243,-0.188365 -0.350953,-0.425021 -0.482258,-0.425021 -0.140793,0 -0.08319,0.108632 0.196694,0.370905 0.272074,0.254958 0.372099,0.327589 0.372099,0.270195 z M 11.6472,21.891708 c 0.01625,-0.02581 -0.0074,-0.07418 -0.05347,-0.107515 -0.07756,-0.05664 -0.07269,-0.0643 0.07409,-0.116969 l 0.157081,-0.05638 -0.157081,-0.02351 c -0.130059,-0.0195 -0.155249,-0.04045 -0.146396,-0.1219 0.0058,-0.05408 -0.01262,-0.09839 -0.04117,-0.09839 -0.02855,0 -0.03985,-0.01175 -0.02525,-0.02606 0.0146,-0.01431 0.134126,-0.03049 0.265547,-0.03586 0.131421,-0.0051 0.329838,-0.03662 0.440921,-0.06941 l 0.201965,-0.05953 -0.179523,-0.03177 c -0.118467,-0.02095 -0.245861,-0.0099 -0.374534,0.03262 -0.231273,0.0764 -0.30096,0.04965 -0.0878,-0.03364 l 0.148154,-0.05791 -0.192915,-0.01576 c -0.167361,-0.01371 -0.189259,-0.02708 -0.165282,-0.10106 0.01559,-0.04803 0.0066,-0.08529 -0.0203,-0.08529 -0.02632,0 -0.04777,-0.01482 -0.04769,-0.03296 1.24e-4,-0.01814 0.09235,-0.03815 0.204945,-0.04454 0.112592,-0.0068 0.276537,-0.04105 0.364311,-0.07691 0.201256,-0.08236 0.233962,-0.08253 0.123549,-7.5e-4 -0.08253,0.06115 -0.07962,0.06464 0.05586,0.06592 0.195011,0.0017 0.385904,0.07759 0.347842,0.137903 -0.01997,0.0316 -0.04059,0.0333 -0.05883,0.0043 -0.01543,-0.02427 -0.160414,-0.05791 -0.322189,-0.07486 -0.237288,-0.02478 -0.328379,-0.01525 -0.471268,0.04948 l -0.177122,0.08023 0.256908,0.01405 c 0.141297,0.0077 0.292768,-0.0034 0.336613,-0.02427 0.04381,-0.02104 0.140307,-0.02436 0.214359,-0.0077 0.07409,0.01703 0.0993,0.0333 0.05611,0.0362 -0.126973,0.0085 -0.09002,0.07989 0.05611,0.108512 0.07401,0.01448 0.134647,0.04778 0.134647,0.07401 0,0.02623 -0.017,0.0373 -0.03787,0.0247 -0.0514,-0.03109 -0.366068,0.05664 -0.366068,0.102107 0,0.01993 0.07962,0.04872 0.176957,0.06396 0.189458,0.02964 0.274046,0.103709 0.182098,0.159374 -0.03102,0.01874 -0.04381,0.05408 -0.02847,0.07844 0.01535,0.02436 -0.0033,0.05604 -0.0415,0.07035 -0.04447,0.01669 -0.05817,0.0085 -0.03804,-0.02359 0.04291,-0.06796 -0.605856,-0.02666 -0.724455,0.04616 -0.07195,0.04412 -0.01914,0.05016 0.293848,0.03373 0.399312,-0.02095 0.372249,0.03058 -0.04447,0.08474 -0.123656,0.0161 -0.224829,0.04642 -0.224829,0.06754 0,0.02104 -0.02137,0.03833 -0.04753,0.03833 -0.02616,0 -0.03424,-0.02112 -0.01791,-0.04693 z m 0.783581,-0.38701 c 0,-0.05808 -0.514865,-0.144912 -0.658868,-0.11116 -0.252041,0.05911 -0.208963,0.08389 0.187609,0.10812 0.222172,0.01354 0.419089,0.02836 0.437604,0.03296 0.01848,0.0043 0.03366,-0.0089 0.03366,-0.02998 z m -0.909605,-0.8025 c 0.03045,-0.03006 0.06667,-0.04352 0.08045,-0.02998 0.01386,0.01354 -0.01106,0.03807 -0.05536,0.05459 -0.06394,0.02385 -0.06914,0.01882 -0.02517,-0.02461 z m 0.162361,-0.07188 c 0.01782,-0.02828 -0.01163,-0.05621 -0.0712,-0.06745 -0.05759,-0.01082 -0.02195,-0.02172 0.08243,-0.02512 0.101223,-0.0034 0.251587,-0.02904 0.334138,-0.05723 0.114275,-0.03901 0.154242,-0.03901 0.167518,0 0.0096,0.02819 0.06122,0.05408 0.114688,0.05749 0.05346,0.0034 -0.03408,0.02061 -0.194491,0.03816 -0.160455,0.01754 -0.330391,0.04778 -0.377636,0.0672 -0.05825,0.02393 -0.07607,0.01967 -0.05545,-0.01303 z m 0.747244,-0.05715 c 0,-0.02564 0.02022,-0.03432 0.04489,-0.01942 0.02467,0.0149 0.04489,0.03585 0.04489,0.04659 0,0.01065 -0.02022,0.01942 -0.04489,0.01942 -0.02467,0 -0.04489,-0.02095 -0.04489,-0.04659 z m -0.852757,-0.19523 0.112213,-0.06285 -0.123425,-0.0017 c -0.132807,-0.0017 -0.166017,-0.06405 -0.05611,-0.105386 0.03705,-0.01388 0.06733,-0.0034 0.06733,0.02291 0,0.04522 0.10354,0.03867 0.49371,-0.03134 0.06172,-0.01107 0.08696,-0.0085 0.05611,0.006 -0.08003,0.03696 -0.06931,0.09605 0.02244,0.123876 0.04315,0.01312 0.0025,0.01567 -0.09138,0.006 -0.09346,-0.01 -0.252527,0.01048 -0.353477,0.04531 -0.229738,0.07938 -0.272173,0.07852 -0.127394,-0.0026 z m 0.688193,-0.0077 c 0,-0.06635 0.06848,-0.07495 0.157468,-0.01976 0.04447,0.02759 0.03168,0.04275 -0.0486,0.05774 -0.07104,0.01329 -0.108854,8.5e-5 -0.108854,-0.03807 z m -0.688195,-0.266124 c -0.176115,-0.03066 -0.199168,-0.08537 -0.07071,-0.167814 0.0651,-0.04182 0.131239,-0.06345 0.146924,-0.04803 0.01568,0.01533 0.005,0.02794 -0.02384,0.02794 -0.0288,0 -0.05239,0.01976 -0.05239,0.04395 0,0.02419 0.04546,0.04395 0.100991,0.04395 0.105158,-4.3e-5 0.499518,-0.133884 0.55522,-0.188451 0.05,-0.04897 -0.337611,-0.03671 -0.433742,0.01363 -0.06774,0.03551 -0.08061,0.03177 -0.06122,-0.0178 0.01807,-0.04608 -0.0091,-0.06098 -0.101989,-0.05596 -0.189961,0.01022 -0.184482,-0.0689 0.01238,-0.179295 l 0.175175,-0.0982 -0.16831,-7.5e-4 c -0.163855,-7.49e-4 -0.233798,-0.08777 -0.123937,-0.154272 0.02541,-0.01542 0.03292,0.0026 0.01766,0.04139 -0.03003,0.07665 0.01741,0.0872 0.116338,0.02589 0.04134,-0.02564 0.07624,-0.02495 0.09305,0.0017 0.0165,0.02615 0.08998,0.01686 0.190497,-0.02427 0.189912,-0.07776 0.319566,-0.08752 0.190894,-0.01439 -0.08711,0.04948 -0.08711,0.05016 0,0.08346 0.07376,0.02828 0.06757,0.03415 -0.03853,0.03671 -0.147279,0.0034 -0.569346,0.172234 -0.569346,0.227474 0,0.04531 0.392215,3.75e-4 0.508768,-0.05817 0.0453,-0.02274 0.09412,-0.02998 0.108458,-0.01593 0.01436,0.01405 0.0025,0.02555 -0.02624,0.02555 -0.108854,0 -0.0467,0.07801 0.08226,0.103309 0.172577,0.03381 0.172709,0.101324 2.73e-4,0.138423 -0.07393,0.01593 -0.149647,0.05391 -0.168311,0.0844 -0.01865,0.03049 -0.07434,0.06634 -0.123689,0.07946 -0.04934,0.0132 -0.120059,0.03339 -0.157089,0.0448 -0.03705,0.0115 -0.117815,0.01201 -0.179532,8.52e-4 z m 0.740561,-0.01209 c -0.01526,-0.02419 0.0041,-0.04395 0.04224,-0.04395 0.03845,0 0.06997,0.01976 0.06997,0.04395 0,0.02419 -0.01898,0.04395 -0.04224,0.04395 -0.02319,0 -0.0547,-0.01976 -0.06997,-0.04395 z m -0.165505,-0.07401 c 0.03234,-0.01269 0.07112,-0.01116 0.08602,0.0034 0.01493,0.01465 -0.01155,0.02495 -0.05891,0.02308 -0.05231,-0.0026 -0.06296,-0.01252 -0.02715,-0.02657 z m 8.350757,-0.354638 c 0.04472,-0.08125 0.622044,-0.642223 0.925794,-0.899574 1.568036,-1.328513 4.423842,-2.760274 5.505668,-2.760274 0.131734,0 0.380764,0.0396 0.553406,0.08793 0.513644,0.143882 1.073295,0.107107 1.584992,-0.104151 0.794695,-0.328092 1.119863,-0.45615 1.220128,-0.480525 l 0.112204,-0.02725 -0.112204,0.08466 c -0.183946,0.138806 -0.988121,0.516959 -1.301573,0.612057 -0.560336,0.169995 -0.822129,0.187199 -1.299181,0.08541 -0.86175,-0.183893 -1.113675,-0.155763 -2.078198,0.232065 -1.721107,0.692038 -3.358394,1.694793 -4.617623,2.82805 -0.456598,0.410925 -0.577647,0.494739 -0.493413,0.341633 z m -8.23012,-0.142911 c -0.01526,-0.02419 0.0041,-0.04395 0.04224,-0.04395 0.03845,0 0.06997,0.01976 0.06997,0.04395 0,0.02419 -0.01906,0.04395 -0.04225,0.04395 -0.02318,0 -0.0547,-0.01976 -0.06997,-0.04395 z m -0.546821,-0.268721 c 0.07063,-0.027 0.116956,-0.07239 0.104976,-0.10301 -0.01394,-0.03569 0.02508,-0.05604 0.112328,-0.05842 0.144482,-0.0043 0.275836,-0.08415 0.237519,-0.144862 -0.01304,-0.0207 -0.08349,-0.02581 -0.156594,-0.0115 -0.08428,0.01652 -0.132906,0.0077 -0.132906,-0.02342 0,-0.02717 -0.03531,-0.05008 -0.07855,-0.05076 -0.0698,-8.52e-4 -0.06881,-0.0068 0.0088,-0.05102 0.06543,-0.03713 0.09174,-0.03679 0.104729,0.0017 0.0096,0.02802 0.06114,0.05127 0.114589,0.0517 0.05346,3.66e-4 0.126742,0.01891 0.162782,0.04131 0.05594,0.03466 0.05297,0.05425 -0.02063,0.133892 -0.06807,0.07367 -0.07376,0.100804 -0.02739,0.128926 0.06023,0.03645 -0.06848,0.07342 -0.399047,0.114644 -0.155406,0.01942 -0.155736,0.01908 -0.03069,-0.0287 z m -0.283493,-0.122233 c 0,-0.06967 0.110941,-0.08346 0.170315,-0.02121 0.04794,0.05025 0.03837,0.06047 -0.05635,0.06047 -0.06271,0 -0.11397,-0.01763 -0.11397,-0.03926 z m 0.134646,-0.312437 c 0,-0.02419 0.01898,-0.04395 0.04225,-0.04395 0.02327,0 0.0547,0.01976 0.06997,0.04395 0.01526,0.02419 -0.0041,0.04395 -0.04225,0.04395 -0.03845,0 -0.06997,-0.01976 -0.06997,-0.04395 z m 0.493702,-0.09047 c -0.0864,-0.02061 -0.192436,-0.02717 -0.23563,-0.01448 -0.04323,0.01269 -0.07855,0.0017 -0.07855,-0.02393 0,-0.06805 0.317288,-0.05459 0.448816,0.01899 0.125398,0.07018 0.09587,0.07444 -0.134638,0.01942 z m -0.46097,-0.111927 c -0.05998,-0.05877 0.094,-0.139828 0.29549,-0.155524 0.27228,-0.02121 0.274714,0.0316 0.0025,0.06166 -0.114135,0.01261 -0.221545,0.04514 -0.238691,0.07231 -0.01716,0.02717 -0.04398,0.03688 -0.05965,0.02155 z m 9.154808,-0.772368 c -0.05875,-0.218659 -0.450632,-0.570342 -0.561029,-0.503511 -0.01815,0.01099 -0.05611,-0.02768 -0.08423,-0.08613 -0.05454,-0.113136 -0.02219,-0.139888 0.06535,-0.05417 0.02921,0.02862 0.06724,0.03816 0.08453,0.02129 0.01725,-0.01695 0.0074,-0.05417 -0.0217,-0.08278 -0.02921,-0.02862 -0.05297,-0.07282 -0.05289,-0.09818 1.24e-4,-0.02538 0.067,0.02308 0.148648,0.107712 0.198344,0.205612 0.751799,0.627157 0.783128,0.59648 0.0137,-0.01337 7.17e-4,-0.103155 -0.02863,-0.199412 -0.05685,-0.185827 -0.273072,-0.365582 -0.601434,-0.499959 -0.20317,-0.08312 -0.218707,-0.134974 -0.02813,-0.09398 0.150513,0.03236 0.146321,0.05195 0.05181,-0.242744 -0.01163,-0.03628 0.03886,0.01933 0.112279,0.123561 0.07335,0.104237 0.181594,0.222202 0.240489,0.262146 0.409551,0.277834 0.67825,0.55209 0.395854,0.40406 -0.07756,-0.04071 -0.08688,-0.03015 -0.0875,0.09891 -8.25e-4,0.252914 -0.05866,0.287509 -0.245522,0.147885 -0.164763,-0.123101 -0.26252,-0.127147 -0.160414,-0.0068 0.03028,0.03569 0.04736,0.100463 0.03804,0.143942 -0.01295,0.06013 -0.02459,0.05085 -0.0486,-0.0385 z m -1.267712,-0.08321 c -0.01625,-0.0258 -0.01997,-0.05629 -0.0083,-0.06788 0.0118,-0.0115 0.03333,0.0095 0.04794,0.04684 0.03036,0.0775 0.0041,0.09109 -0.03977,0.02095 z M 0.8014133,17.565522 C 0.38412377,17.415082 0.06091877,17.110727 0.01331977,16.82338 c -0.04645,-0.280167 0.02055,-0.448765 0.32917,-0.829115 0.338791,-0.4175 0.49200153,-0.710468 0.54144953,-1.035323 0.0269,-0.176774 0.04835,-0.219196 0.0961,-0.190111 0.07558,0.04599 0.0769,0.34113 0.0025,0.566356 -0.08701,0.263593 -0.198814,0.453304 -0.43949253,0.745795 -0.345144,0.419442 -0.381464,0.710375 -0.122716,0.982809 0.252148,0.265493 0.41647253,0.324574 0.90211353,0.324335 0.363444,-1.87e-4 0.502043,-0.0201 0.728613,-0.104551 0.15388,-0.0574 0.302784,-0.131465 0.330886,-0.164638 0.02814,-0.03313 0.08086,-0.0603 0.117221,-0.0603 0.03639,0 0.119729,-0.03628 0.185258,-0.08065 0.389592,-0.263798 0.972766,-0.39 1.27484,-0.275875 0.21195,0.08006 0.136718,0.126831 -0.230357,0.143158 -0.337438,0.01507 -0.382562,0.03032 -0.97619,0.330016 -0.342314,0.172848 -0.732095,0.345908 -0.866173,0.384574 -0.291967,0.08423 -0.859176,0.08717 -1.085193,0.006 z M 21.371344,17.275264 c -0.06675,-0.188544 -0.277354,-0.393492 -0.533339,-0.519012 -0.220019,-0.107873 -0.30827,-0.204956 -0.123912,-0.136302 0.102682,0.03824 0.115867,0.03441 0.09182,-0.027 -0.02063,-0.05272 -0.0092,-0.06456 0.0434,-0.0448 0.03936,0.01473 0.09005,0.02683 0.112716,0.02683 0.02269,0 0.04117,0.01967 0.04117,0.04369 0,0.02402 0.146429,0.183468 0.325399,0.354297 0.206223,0.196848 0.289648,0.300906 0.227791,0.28411 -0.07731,-0.02104 -0.100925,-0.006 -0.113565,0.07435 -0.01386,0.08746 -0.02335,0.07997 -0.07154,-0.05621 z M 1.1205333,17.274412 c 0,-0.02189 0.04043,-0.03986 0.08977,-0.03986 0.04934,0 0.08976,0.0077 0.08976,0.01686 0,0.0093 -0.04043,0.02717 -0.08976,0.03986 -0.04934,0.01269 -0.08977,0.0051 -0.08977,-0.01686 z m 0.40394,0.0026 c 0,-0.02342 0.03028,-0.04258 0.06733,-0.04258 0.03705,0 0.06733,0.0077 0.06733,0.01729 0,0.0095 -0.03028,0.02862 -0.06733,0.04258 -0.03705,0.01388 -0.06733,0.006 -0.06733,-0.01729 z m -0.626203,-0.04037 c -0.03589,-0.02223 -0.08111,-0.03075 -0.100471,-0.01899 -0.01939,0.01175 -0.02327,-0.0094 -0.0086,-0.04684 0.03424,-0.08745 0.04711,-0.08608 0.184408,0.01967 0.113293,0.08729 0.05182,0.124983 -0.07541,0.04616 z m 0.887081,0.01167 c 0.03243,-0.01269 0.07112,-0.01116 0.08602,0.0034 0.01493,0.01465 -0.01155,0.02495 -0.05891,0.02308 -0.05231,-0.0026 -0.06295,-0.01252 -0.02715,-0.02657 z M 19.917682,17.116421 c 0.03243,-0.01269 0.07112,-0.01116 0.08602,0.0034 0.01493,0.01465 -0.01155,0.02495 -0.05891,0.02308 -0.05231,-0.0026 -0.06295,-0.01252 -0.02715,-0.02657 z m 1.699069,-0.174704 c -0.08875,-0.167133 -0.231042,-0.289127 -0.501276,-0.429756 -0.16119,-0.08389 -0.188632,-0.109551 -0.09741,-0.09113 0.115595,0.02334 0.1243,0.01661 0.09683,-0.07495 l -0.0302,-0.100625 0.07071,0.09432 c 0.101907,0.135885 0.747112,0.546759 0.807063,0.513952 0.02781,-0.01525 0.02442,-1.87e-4 -0.0074,0.03347 -0.04942,0.05204 -0.07772,0.04999 -0.190745,-0.01346 -0.145191,-0.08159 -0.156924,-0.07325 -0.08418,0.05987 0.02673,0.0488 0.03828,0.09884 0.02574,0.111102 -0.01254,0.01226 -0.05264,-0.0339 -0.08913,-0.102679 z M 4.2784713,16.860637 c -0.04439,-0.113332 0.0288,-0.298802 0.211644,-0.536547 0.09686,-0.125904 0.1761,-0.247438 0.1761,-0.270067 0,-0.02257 0.03028,-0.05255 0.06733,-0.06643 0.03705,-0.01388 0.06733,-0.05204 0.06733,-0.08466 0,-0.0327 0.04546,-0.101861 0.100983,-0.15377 0.201735,-0.188519 0.275672,-0.275986 0.284797,-0.336889 0.0146,-0.09725 0.168797,-0.285073 0.235341,-0.286598 0.03754,-7.58e-4 0.01642,0.04948 -0.05611,0.133875 -0.06395,0.07435 -0.116198,0.151837 -0.116198,0.172107 0,0.02027 0.09483,0.118613 0.21072,0.218532 0.15072,0.129948 0.243369,0.177949 0.325391,0.168597 0.177205,-0.02018 0.163963,-0.1598 -0.04068,-0.428427 -0.0997,-0.130894 -0.18128,-0.275279 -0.18128,-0.320852 0,-0.158062 0.297354,-0.714854 0.448131,-0.839131 0.168682,-0.139027 0.291134,-0.133491 0.512646,0.02317 0.125851,0.089 0.132592,0.08941 0.190745,0.0115 0.07013,-0.09389 0.07987,-0.385554 0.01683,-0.50099 -0.02393,-0.04378 -0.146083,-0.144061 -0.271488,-0.222884 -0.218402,-0.137273 -0.403148,-0.388066 -0.403148,-0.547279 0,-0.142204 0.290523,-0.03747 0.502538,0.18116 0.164639,0.169774 0.268394,0.424697 0.301307,0.740294 l 0.02748,0.263773 0.08003,-0.116254 c 0.141883,-0.205969 0.144342,-0.397673 0.0087,-0.68198 -0.178789,-0.374822 -0.208063,-0.531343 -0.132509,-0.708466 0.08012,-0.187769 0.149943,-0.168079 0.278295,0.07844 0.174482,0.335126 0.09191,1.053711 -0.168179,1.46352 -0.07409,0.116799 -0.13477,0.218736 -0.13477,0.226529 0,0.0077 0.07046,0.02708 0.156536,0.04292 0.386753,0.07103 0.280028,0.451686 -0.230176,0.820862 -0.134489,0.09732 -0.335803,0.210083 -0.447364,0.25058 -0.117683,0.04275 -0.249706,0.133824 -0.314467,0.216982 -0.06139,0.07887 -0.150274,0.143345 -0.197527,0.143345 -0.04728,0 -0.107518,0.0396 -0.133937,0.08792 -0.0264,0.04838 -0.07277,0.08793 -0.102988,0.08793 -0.0302,0 -0.0802,0.0396 -0.111008,0.08793 -0.03086,0.04838 -0.08482,0.08792 -0.119976,0.08792 -0.03515,0 -0.07673,0.0396 -0.09241,0.08793 -0.01568,0.04838 -0.05066,0.08793 -0.07781,0.08793 -0.02715,0 -0.08127,0.03049 -0.120406,0.06779 -0.163434,0.155814 -0.564618,0.415805 -0.641624,0.415805 -0.04571,0 -0.09471,-0.02972 -0.108937,-0.066 z m 0.11845,-0.06583 c 0,-0.02419 -0.02021,-0.04395 -0.04488,-0.04395 -0.02467,0 -0.04489,0.01976 -0.04489,0.04395 0,0.02419 0.02022,0.04395 0.04489,0.04395 0.02467,0 0.04488,-0.01976 0.04488,-0.04395 z m 0.190753,-0.02564 c 0.03193,-0.03126 -0.128104,-0.194165 -0.190753,-0.194165 -0.06526,0 -0.0552,0.04786 0.02937,0.139411 0.07772,0.08414 0.117567,0.09764 0.161346,0.05476 z m 0.183674,-0.135953 c 0.03886,-0.03807 -0.147411,-0.234058 -0.222511,-0.234058 -0.102872,0 -0.111899,0.08312 -0.01889,0.174236 0.09262,0.09073 0.18619,0.113912 0.241413,0.05979 z m 0.194845,-0.170301 c 0.02368,-0.06975 -0.250291,-0.250819 -0.332627,-0.219877 -0.05949,0.0224 -0.04984,0.04889 0.05776,0.158803 0.125629,0.128433 0.243146,0.154545 0.274912,0.06106 z m 0.178525,-0.132379 c 0.02896,-0.07393 -0.187279,-0.327087 -0.279434,-0.327087 -0.02937,0 -0.07682,0.02768 -0.105463,0.06141 -0.04158,0.04906 -0.01799,0.08891 0.116932,0.197827 0.191784,0.154852 0.230085,0.164544 0.267965,0.06788 z m 0.224516,-0.176119 c 0.01683,-0.04301 -0.02904,-0.125409 -0.122419,-0.219809 -0.158888,-0.160566 -0.204309,-0.175896 -0.311307,-0.105045 -0.05586,0.03696 -0.03375,0.07444 0.129193,0.219136 0.21591,0.19178 0.264243,0.208558 0.304533,0.105718 z m 0.22185,-0.213285 c 0.01427,-0.03645 -0.04678,-0.127138 -0.14727,-0.218625 -0.183286,-0.166852 -0.223295,-0.180964 -0.328461,-0.115845 -0.05528,0.03424 -0.03606,0.07256 0.110092,0.219145 0.181198,0.181756 0.32219,0.22623 0.365639,0.115325 z m 0.845554,-0.576065 c 0.271958,-0.156121 0.607836,-0.453688 0.658018,-0.582981 0.05693,-0.146616 -0.02079,-0.229382 -0.215291,-0.229382 -0.117963,0 -0.189028,-0.03577 -0.299863,-0.150866 -0.301727,-0.313357 -0.519717,-0.245683 -0.768729,0.238666 -0.18237,0.354706 -0.191009,0.441653 -0.06386,0.6431 0.170315,0.26993 0.328823,0.28865 0.689768,0.08151 z m -0.199557,-0.12983 c 0,-0.0115 0.05553,-0.04991 0.123425,-0.08541 0.0679,-0.03551 0.193278,-0.124217 0.27865,-0.197129 0.15902,-0.135791 0.241604,-0.150354 0.134267,-0.02368 -0.131956,0.155746 -0.536342,0.386627 -0.536342,0.306219 z m 0.364286,-1.815977 c -0.06708,-0.122821 -0.280382,-0.317309 -0.347966,-0.317309 -0.101032,0 -0.07013,0.07623 0.09739,0.240326 0.171528,0.16801 0.326299,0.215559 0.25058,0.07699 z m 0.474543,-0.423828 c -0.05743,-0.280287 -0.14468,-0.364101 -0.190951,-0.183511 -0.03243,0.126525 0.146809,0.540661 0.207791,0.480149 0.02013,-0.01993 0.01254,-0.153421 -0.01683,-0.296638 z m 14.8051667,3.719465 c -0.03762,-0.116211 -0.200101,-0.255724 -0.527316,-0.452862 -0.155744,-0.09384 -0.24902,-0.170625 -0.207279,-0.170633 0.04175,-1.7e-5 0.08837,0.01976 0.10364,0.04395 0.05338,0.08457 0.116874,0.04676 0.0689,-0.04105 -0.0255,-0.04676 -0.04654,-0.09128 -0.04662,-0.09891 -7.4e-5,-0.0077 0.15534,0.129906 0.345375,0.305649 0.190027,0.175744 0.366819,0.312693 0.392859,0.304347 0.07071,-0.02266 0.08451,-0.245794 0.01989,-0.32201 -0.06535,-0.07716 -0.380359,-0.241842 -0.431539,-0.225626 -0.01906,0.006 -0.08469,-0.02351 -0.14572,-0.06558 -0.110579,-0.07631 -0.11062,-0.07657 -0.0104,-0.07657 0.08336,0 0.09604,-0.0178 0.07393,-0.103947 -0.01898,-0.07401 -0.0041,-0.112277 0.05041,-0.132887 0.06576,-0.0247 0.06848,-0.01882 0.01824,0.04037 -0.04951,0.05842 -0.04381,0.08398 0.03589,0.162023 0.05206,0.05102 0.131165,0.09562 0.175835,0.09921 0.04464,0.0034 0.192296,0.111161 0.328065,0.239057 0.226405,0.213268 0.236158,0.230157 0.117749,0.203891 -0.103318,-0.02291 -0.123945,-0.0155 -0.103269,0.0373 0.01493,0.03824 -0.02838,0.122786 -0.103153,0.201165 -0.116032,0.121671 -0.131635,0.127002 -0.155562,0.05315 z m -1.07978,-0.315785 c 0.01526,-0.02419 0.03663,-0.04395 0.04753,-0.04395 0.01089,0 0.0198,0.01984 0.0198,0.04395 0,0.02419 -0.02137,0.04395 -0.04753,0.04395 -0.02615,0 -0.03507,-0.01976 -0.0198,-0.04395 z m 1.6709,-0.006 c -0.04266,-0.02342 -0.07756,-0.0804 -0.07756,-0.126738 0,-0.140808 -0.258972,-0.384907 -0.507745,-0.478591 -0.128046,-0.0482 -0.194334,-0.08871 -0.147312,-0.08997 0.08408,-0.0026 0.08408,-0.0043 0,-0.09751 -0.07261,-0.08082 -0.0585,-0.0775 0.09323,0.02197 0.0983,0.06447 0.195044,0.117199 0.214986,0.117199 0.07319,0 0.395664,0.377241 0.420896,0.49232 0.01427,0.06524 0.05908,0.125068 0.0994,0.132921 0.04191,0.0085 0.05371,0.0264 0.02756,0.04258 -0.02525,0.01559 -0.08078,0.0092 -0.123425,-0.01422 z m 0.08691,-0.243409 c -0.03333,-0.203031 -0.240307,-0.460774 -0.447199,-0.556945 -0.08314,-0.03867 -0.151165,-0.100915 -0.151165,-0.138398 0,-0.05408 0.02096,-0.04889 0.101519,0.02529 0.05586,0.05136 0.127609,0.08491 0.159507,0.07452 0.03185,-0.01039 0.156264,0.09627 0.276381,0.237081 0.120116,0.140807 0.236553,0.256014 0.25874,0.256014 0.06593,0 -0.1335,-0.454881 -0.236908,-0.540457 -0.05239,-0.04335 -0.122254,-0.06873 -0.155217,-0.0563 -0.033,0.01243 -0.0599,0.0051 -0.0599,-0.01635 0,-0.02138 0.02525,-0.04795 0.05611,-0.05911 0.04489,-0.0161 0.04489,-0.03177 0,-0.07844 -0.03086,-0.03202 -0.05611,-0.07563 -0.05611,-0.0969 0,-0.04957 0.300185,0.248348 0.466399,0.462886 0.174606,0.22537 0.22044,0.206923 0.109168,-0.04395 -0.110901,-0.250061 -0.222296,-0.376705 -0.411952,-0.468328 l -0.141173,-0.06822 0.123426,-8.52e-4 c 0.06791,-3.75e-4 0.123425,-0.02146 0.123425,-0.0465 0,-0.03134 0.02698,-0.03134 0.08682,0 0.121305,0.06362 0.182477,0.05672 0.182477,-0.02044 0,-0.03628 0.01832,-0.06592 0.04068,-0.06592 0.02236,0 0.03218,0.03466 0.02186,0.07691 -0.0104,0.04233 -0.0033,0.09776 0.01543,0.12322 0.06964,0.09409 0.37431,0.294706 0.403774,0.265843 0.04753,-0.04659 -0.120512,-0.319319 -0.228104,-0.370318 l -0.09654,-0.04574 0.09995,-0.0034 c 0.05924,-0.0017 0.129762,0.04156 0.173212,0.106553 0.04026,0.06021 0.09469,0.09656 0.120867,0.08074 0.0302,-0.01831 0.03663,-7.5e-4 0.01758,0.04795 -0.01658,0.04224 -0.03003,0.117174 -0.03003,0.166579 0,0.07614 -0.0203,0.08585 -0.133244,0.06371 -0.12779,-0.02504 -0.132154,-0.02078 -0.106593,0.104407 0.01535,0.07512 0.0074,0.130511 -0.01823,0.130511 -0.02467,0 -0.05685,-0.0586 -0.07145,-0.130162 -0.02987,-0.146148 -0.32073,-0.485302 -0.416243,-0.485302 -0.09079,0 -0.07632,0.04233 0.04687,0.137264 0.154415,0.118971 0.309005,0.379737 0.327008,0.551597 0.01749,0.166605 0.0058,0.172848 -0.142576,0.0775 l -0.107352,-0.0689 0.04917,0.156785 c 0.05817,0.185606 0.02071,0.241237 -0.108978,0.161912 -0.08488,-0.05195 -0.09182,-0.04897 -0.07079,0.02972 0.01279,0.04803 0.0084,0.110905 -0.0097,0.139726 -0.01931,0.03066 -0.04456,-0.01746 -0.06073,-0.116024 z M 3.8583303,15.927941 c -0.297611,-0.226145 -0.712945,-0.416503 -1.368901,-0.627395 -1.149236,-0.369483 -1.725918,-0.766824 -2.08383353,-1.435773 -0.127608,-0.238495 -0.172304,-0.619296 -0.09434,-0.803676 0.09354,-0.221188 0.278056,-0.271386 1.03194153,-0.280755 0.36785,-0.0043 0.643414,0.006 0.612374,0.02257 -0.03102,0.01695 -0.313345,0.058 -0.627325,0.09116 -0.68552653,0.07239 -0.77065153,0.123799 -0.76568353,0.46234 0.0041,0.261704 0.20571053,0.583935 0.58803353,0.938624 0.380317,0.352833 0.676269,0.523713 1.3164,0.760044 0.696014,0.256968 1.140251,0.500309 1.418513,0.777027 0.117848,0.117191 0.205382,0.221223 0.194532,0.231188 -0.01089,0.01 -0.11062,-0.05093 -0.22171,-0.135357 z m 8.7841947,-0.717452 c -0.240002,-0.05902 -0.397231,-0.146096 -0.562291,-0.311458 -0.190918,-0.191269 -0.181182,-0.237277 0.0217,-0.102439 0.788762,0.5243 1.862041,0.135817 2.394539,-0.866725 0.569329,-1.071903 0.553487,-2.350465 -0.05041,-4.0668397 -0.100636,-0.28601 -0.252057,-0.6665898 -0.336488,-0.8457138 -0.284409,-0.603387 -0.09051,-0.378443 0.244714,0.283889 0.278872,0.5509998 0.487463,1.1483325 0.615171,1.7616585 0.106008,0.509115 0.115727,0.634839 0.09639,1.247578 -0.02459,0.780348 -0.100141,1.104164 -0.399938,1.714526 -0.244879,0.498545 -0.69476,0.950888 -1.09063,1.096609 -0.308477,0.113546 -0.686121,0.149546 -0.932758,0.08892 z M 23.409207,15.01704 c -0.02822,-0.110105 -0.196083,-0.196755 -0.245992,-0.126977 -0.01601,0.02231 -0.09577,0.01593 -0.185143,-0.01482 l -0.157089,-0.054 0.254863,-0.0026 c 0.273385,-0.0026 0.395928,0.06558 0.395928,0.220465 0,0.116756 -0.0297,0.106238 -0.06254,-0.02223 z m -4.007971,-0.0871 c -0.119837,-0.101001 -0.125785,-0.123885 -0.122848,-0.472587 0.0025,-0.283225 0.03622,-0.471283 0.14883,-0.82805 0.0802,-0.253885 0.156528,-0.498214 0.169688,-0.542961 0.01403,-0.04769 0.04051,-0.06515 0.06395,-0.04216 0.02343,0.023 -0.02682,0.275091 -0.121396,0.608914 -0.191908,0.677253 -0.216793,1.019337 -0.08465,1.163577 0.08272,0.09029 0.117922,0.0961 0.448817,0.0741 0.278831,-0.01857 0.53456,-0.0827 1.144492,-0.286981 1.12318,-0.376194 1.570726,-0.462068 2.401189,-0.460773 0.735379,8.51e-4 0.956973,0.03909 1.997249,0.341973 0.532035,0.154903 0.585377,0.162185 1.032288,0.140961 0.383139,-0.01814 0.58456,-0.05655 1.077165,-0.204922 0.752136,-0.22658 1.245145,-0.30949 1.795283,-0.301902 l 0.426374,0.006 -0.426374,0.03696 c -0.533702,0.04625 -0.85274,0.117037 -1.666313,0.36961 -0.712038,0.221052 -1.190277,0.30059 -1.56519,0.260306 -0.135769,-0.01456 -0.539709,-0.113 -0.897642,-0.218693 -0.875281,-0.258458 -1.126249,-0.298445 -1.862602,-0.296758 -0.785734,0.0017 -1.074657,0.05962 -2.269884,0.454573 -0.799736,0.264241 -0.966223,0.305105 -1.242975,0.305105 -0.273138,0 -0.337834,-0.01542 -0.445475,-0.106145 z M 5.2626733,14.563536 c -0.146553,-0.460502 -0.160208,-0.585068 -0.172295,-1.571649 -0.0094,-0.764576 -0.02706,-0.981131 -0.102774,-1.260353 -0.159985,-0.589803 -0.413181,-0.976924 -0.74047,-1.132116 -0.243336,-0.115377 -0.399723,-0.115326 -0.643414,2.21e-4 -0.270094,0.128075 -0.487382,0.389684 -0.800108,0.963322 -0.389113,0.713739 -0.674941,0.980058 -1.115358,1.039182 -0.232899,0.03126 -0.325853,-0.0488 -0.103986,-0.08955 0.219515,-0.04037 0.545385,-0.259634 0.705486,-0.474767 0.07731,-0.103922 0.282957,-0.426341 0.456927,-0.71649 0.510129,-0.85079 0.879762,-1.120439 1.356632,-0.989656 0.404888,0.111033 0.794587,0.568213 0.957361,1.123131 0.137337,0.468192 0.145348,0.538617 0.189878,1.66897 0.02467,0.626876 0.06939,1.17998 0.110109,1.36281 0.07921,0.355745 0.08078,0.37369 0.03251,0.37369 -0.0198,0 -0.07855,-0.133535 -0.130488,-0.296741 z"
     id="path1" /><text
     xml:space="preserve"
     style="font-size:7.67246px;font-family:'Canela Trial';-inkscape-font-specification:'Canela Trial, Normal';text-align:center;writing-mode:lr-tb;direction:ltr;text-anchor:middle;display:inline;fill:#000000;fill-opacity:1;stroke:#000000;stroke-width:0.332402;stroke-linecap:round;stroke-linejoin:round;stroke-dasharray:none;stroke-opacity:0.0359937"
     x="62.904827"
     y="24.481728"
     id="text2"
     transform="scale(0.97156105,1.0292714)"
     inkscape:export-filename="Logotipo.svg"
     inkscape:export-xdpi="96"
     inkscape:export-ydpi="96"><tspan
       id="tspan2"
       style="font-style:normal;font-variant:normal;font-weight:normal;font-stretch:normal;font-size:7.67246px;font-family:Allura;-inkscape-font-specification:'Allura, Normal';font-variant-ligatures:normal;font-variant-caps:normal;font-variant-numeric:normal;font-variant-east-asian:normal;fill:#000000;fill-opacity:1;stroke:#000000;stroke-width:0.332402;stroke-dasharray:none;stroke-opacity:0.0359937"
       x="62.904827"
       y="24.481728">maxilofacialstudio</tspan></text></svg>
