<?xml version="1.0" encoding="UTF-8" standalone="no"?>
<!-- Created with Inkscape (http://www.inkscape.org/) -->

<svg
   width="19.919689mm"
   height="19.660496mm"
   viewBox="0 0 19.91969 19.660496"
   version="1.1"
   id="svg1"
   xml:space="preserve"
   inkscape:export-filename="Mariposa.png"
   inkscape:export-xdpi="16.926048"
   inkscape:export-ydpi="16.926048"
   sodipodi:docname="Mariposa.svg"
   inkscape:version="1.4.2 (f4327f4, 2025-05-13)"
   xmlns:inkscape="http://www.inkscape.org/namespaces/inkscape"
   xmlns:sodipodi="http://sodipodi.sourceforge.net/DTD/sodipodi-0.dtd"
   xmlns:xlink="http://www.w3.org/1999/xlink"
   xmlns="http://www.w3.org/2000/svg"
   xmlns:svg="http://www.w3.org/2000/svg"><sodipodi:namedview
     id="namedview1"
     pagecolor="#ffffff"
     bordercolor="#000000"
     borderopacity="0.25"
     inkscape:showpageshadow="2"
     inkscape:pageopacity="0.0"
     inkscape:pagecheckerboard="0"
     inkscape:deskcolor="#d1d1d1"
     inkscape:document-units="mm"
     inkscape:export-bgcolor="#ffffff0d"
     showgrid="false"
     inkscape:zoom="4.5801235"
     inkscape:cx="20.414297"
     inkscape:cy="32.204372"
     inkscape:window-width="1920"
     inkscape:window-height="1057"
     inkscape:window-x="1912"
     inkscape:window-y="38"
     inkscape:window-maximized="1"
     inkscape:current-layer="layer1"><inkscape:page
       x="0"
       y="0"
       width="19.919689"
       height="19.660496"
       id="page1"
       margin="0"
       bleed="0" /></sodipodi:namedview><defs
     id="defs1"><linearGradient
       id="swatch72"
       inkscape:swatch="solid"><stop
         style="stop-color:#7f2020;stop-opacity:1;"
         offset="0"
         id="stop72" /></linearGradient><linearGradient
       id="linearGradient44"
       inkscape:collect="always"><stop
         style="stop-color:#1a1a1a;stop-opacity:1;"
         offset="1"
         id="stop44" /><stop
         style="stop-color:#1a1a1a;stop-opacity:0;"
         offset="1"
         id="stop45" /></linearGradient><linearGradient
       id="linearGradient32"
       inkscape:collect="always"><stop
         style="stop-color:#9ec433;stop-opacity:1;"
         offset="0"
         id="stop32" /><stop
         style="stop-color:#9ec433;stop-opacity:0;"
         offset="1"
         id="stop33" /></linearGradient><linearGradient
       id="linearGradient30"
       inkscape:collect="always"><stop
         style="stop-color:#51abb5;stop-opacity:1;"
         offset="0"
         id="stop30" /><stop
         style="stop-color:#51abb5;stop-opacity:0;"
         offset="1"
         id="stop31" /></linearGradient><linearGradient
       inkscape:collect="always"
       xlink:href="#linearGradient30"
       id="linearGradient31"
       x1="292.2818"
       y1="363.50601"
       x2="266.18814"
       y2="396.49234"
       gradientUnits="userSpaceOnUse" /><linearGradient
       inkscape:collect="always"
       xlink:href="#linearGradient32"
       id="linearGradient33"
       x1="276.19891"
       y1="403.22089"
       x2="250.26938"
       y2="423.57068"
       gradientUnits="userSpaceOnUse"
       gradientTransform="matrix(0.26458333,0,0,0.26458333,-0.34660637,-0.4043741)" /><linearGradient
       inkscape:collect="always"
       xlink:href="#linearGradient44"
       id="linearGradient45"
       x1="115.54574"
       y1="192.13956"
       x2="120.88422"
       y2="273.69733"
       gradientUnits="userSpaceOnUse"
       gradientTransform="translate(-0.34736842,-0.68890335)" /></defs><g
     inkscape:label="Capa 1"
     inkscape:groupmode="layer"
     id="layer1"
     transform="translate(-66.155864,-92.116369)"
     style="opacity:1"><path
       style="fill:url(#linearGradient33);fill-opacity:1;stroke:#000000;stroke-width:0.043421"
       d="m 69.080898,111.08106 c -0.772927,-0.0641 -1.178414,-0.24669 -1.705239,-0.76791 -0.411761,-0.40737 -0.526627,-0.63946 -0.526228,-1.06322 2.65e-4,-0.30118 0.01672,-0.36421 0.181171,-0.69474 0.114139,-0.22941 0.366588,-0.59577 0.684308,-0.99309 0.276894,-0.34627 0.581713,-0.75912 0.677373,-0.91744 0.417282,-0.69062 0.633013,-1.43674 0.594267,-2.05529 -0.01204,-0.19207 3e-6,-0.44068 0.02677,-0.55287 l 0.04863,-0.20386 0.325657,0.21622 c 0.758955,0.50392 1.89044,0.98818 3.671573,1.57139 1.894935,0.62047 2.662986,0.96007 3.643876,1.6112 0.309912,0.20572 0.576379,0.37404 0.59215,0.37404 0.01577,0 0.136965,0.13403 0.269322,0.29785 l 0.240652,0.29785 -0.414107,0.52514 c -0.403537,0.51172 -0.417592,0.52435 -0.550564,0.49458 -0.07505,-0.0168 -0.370927,-0.0289 -0.657508,-0.0269 -0.85453,0.006 -1.622282,0.2316 -2.583553,0.75937 -0.250756,0.13767 -0.524309,0.26382 -0.607893,0.28032 -0.08358,0.0165 -0.210593,0.074 -0.282236,0.12771 -0.338545,0.25394 -1.201672,0.59107 -1.715133,0.66991 -0.410308,0.063 -1.432851,0.0896 -1.913284,0.0498 z m 0.51435,-0.24337 c 0.144955,-0.0609 0.153154,-0.0725 0.08032,-0.11358 -0.09111,-0.0514 -0.405754,-0.0221 -0.471805,0.0439 -0.06436,0.0644 7.94e-4,0.13747 0.122669,0.13747 0.05906,0 0.18003,-0.0305 0.268819,-0.0678 z m 1.028189,0.009 c 0.04404,-0.0322 0.06616,-0.081 0.04916,-0.10856 -0.06586,-0.10656 -0.373149,-0.0213 -0.373149,0.10349 0,0.0816 0.214675,0.085 0.323992,0.005 z m -1.643446,-0.0362 c 0.03493,-0.0565 -0.226404,-0.30431 -0.436507,-0.4139 -0.120589,-0.0629 -0.132029,-0.0612 -0.20625,0.0304 -0.120021,0.14822 -0.102547,0.26074 0.04083,0.26292 0.06567,0.001 0.187796,0.0393 0.271381,0.085 0.176085,0.0964 0.285639,0.10818 0.330546,0.0355 z m 2.249456,0.025 c 0.119502,-0.0459 0.0744,-0.1039 -0.08073,-0.1039 -0.153241,0 -0.241419,0.0621 -0.143949,0.10141 0.07878,0.0318 0.146452,0.0325 0.224679,0.002 z"
       id="path26"
       sodipodi:nodetypes="sscssssscssssscssssssssssssssssssssscsscsscc" /><path
       style="fill:url(#linearGradient31);fill-opacity:1;stroke:#000000;stroke-width:0.164111"
       d="m 295.00904,408.12662 c -0.62115,-0.75754 -1.18445,-1.37734 -1.25176,-1.37734 -0.0673,0 -0.21617,0.11299 -0.33078,0.25109 -0.18048,0.21746 -0.3755,0.0891 -1.45607,-0.95846 -3.05109,-2.95786 -6.84177,-5.01762 -14.42777,-7.83967 -7.37757,-2.74451 -9.56766,-3.91121 -13.43982,-7.1596 -3.06122,-2.56808 -5.03008,-4.87812 -6.16899,-7.23796 -0.53211,-1.10255 -0.67314,-1.59545 -0.73579,-2.57157 -0.10265,-1.59964 0.0433,-2.27475 0.63842,-2.95253 0.86919,-0.98995 2.06802,-1.29526 7.44906,-1.89706 1.6247,-0.1817 3.68704,-0.43949 4.58298,-0.57286 0.89595,-0.13337 1.65291,-0.24249 1.68214,-0.24249 0.0292,0 0.0532,-0.0738 0.0532,-0.16411 0,-0.0903 -0.11077,-0.16411 -0.24616,-0.16411 -0.1354,0 -0.24617,-0.0349 -0.24617,-0.0774 0,-0.0426 0.43975,-0.74716 0.97723,-1.56569 0.70135,-1.0681 1.25685,-1.69843 1.96775,-2.23283 1.98793,-1.49435 3.94392,-4.0342 6.49393,-8.43236 3.97297,-6.85243 6.41218,-9.29319 10.28438,-10.29097 1.43288,-0.36922 2.77086,-0.15582 4.63687,0.73955 3.01182,1.44517 5.39924,4.60854 7.03405,9.32021 1.29084,3.72033 1.53452,5.7231 1.67543,13.77037 0.11345,6.47881 0.33785,10.67528 0.6616,12.37261 0.30754,1.61238 1.08926,4.23998 1.70723,5.73859 l 0.48673,1.18032 -5.34862,6.76535 c -2.94174,3.72094 -5.39385,6.81281 -5.44913,6.87083 -0.0553,0.058 -0.60873,-0.51432 -1.22989,-1.27186 z"
       id="path30"
       transform="scale(0.26458333)"
       sodipodi:nodetypes="sssssssssssssssssssssssscssss" /></g><g
     inkscape:label="Clip"
     id="g33"
     transform="matrix(1,0,0,1.0084678,-66.155864,-92.668155)"><path
       style="opacity:1;fill:url(#linearGradient45);fill-opacity:1"
       d="m 68.368215,111.22755 c -1.151955,-0.40042 -2.044189,-1.21051 -2.175608,-1.97532 -0.128136,-0.7457 0.05665,-1.19446 0.908706,-2.20682 0.935274,-1.11123 1.358238,-1.891 1.494726,-2.75567 0.07427,-0.4705 0.133469,-0.58342 0.265287,-0.50601 0.208643,0.12253 0.212336,0.90799 0.0071,1.50745 -0.240219,0.70159 -0.54885,1.20655 -1.213273,1.98506 -0.952796,1.1164 -1.053081,1.89076 -0.338775,2.61589 0.69608,0.70664 1.149728,0.86389 2.490389,0.86325 1.003329,-4.8e-4 1.385937,-0.0534 2.0114,-0.27827 0.424813,-0.15272 0.835868,-0.34991 0.913456,-0.4382 0.07759,-0.0883 0.223208,-0.16053 0.3236,-0.16053 0.100391,0 0.330525,-0.0966 0.511409,-0.21471 1.075518,-0.70215 2.685421,-1.03804 3.519341,-0.73428 0.585114,0.21314 0.377423,0.33758 -0.635937,0.38104 -0.931517,0.04 -1.056093,0.0806 -2.694855,0.87838 -0.945004,0.46007 -2.021026,0.92069 -2.391159,1.0236 -0.806006,0.22411 -2.371851,0.23202 -2.995795,0.0151 z m 0.880984,-0.77555 c 0,-0.0583 0.111512,-0.10605 0.247803,-0.10605 0.136292,0 0.247803,0.0202 0.247803,0.0449 0,0.0247 -0.111511,0.0724 -0.247803,0.10605 -0.136291,0.0337 -0.247803,0.0135 -0.247803,-0.0449 z m 1.115113,0.007 c 0,-0.0623 0.08363,-0.11334 0.185852,-0.11334 0.102218,0 0.185852,0.0207 0.185852,0.046 0,0.0253 -0.08363,0.0763 -0.185852,0.11334 -0.102219,0.037 -0.185852,0.0164 -0.185852,-0.046 z m -1.728704,-0.10741 c -0.09896,-0.0591 -0.223776,-0.0819 -0.277359,-0.0506 -0.05358,0.0313 -0.06422,-0.0249 -0.02364,-0.12473 0.09458,-0.23277 0.130077,-0.22912 0.509072,0.0524 0.312763,0.23234 0.142964,0.33267 -0.208078,0.12295 z m 2.44888,0.0311 c 0.08944,-0.0338 0.196307,-0.0297 0.237478,0.009 0.04117,0.0389 -0.03201,0.0665 -0.162621,0.0615 -0.144338,-0.006 -0.173697,-0.0333 -0.07486,-0.0707 z m 6.882507,-1.03194 c -0.122573,-0.30166 0.07939,-0.79531 0.584282,-1.42811 0.267372,-0.33511 0.48613,-0.65858 0.48613,-0.71881 0,-0.0602 0.08363,-0.13982 0.185852,-0.17686 0.102219,-0.037 0.185852,-0.1385 0.185852,-0.22544 0,-0.087 0.125451,-0.27113 0.278779,-0.40928 0.556897,-0.50178 0.761014,-0.73458 0.786208,-0.89669 0.04023,-0.25886 0.465977,-0.75876 0.649671,-0.76283 0.103549,-0.002 0.04534,0.13161 -0.154876,0.35633 -0.176423,0.19801 -0.320768,0.40415 -0.320768,0.4581 0,0.054 0.261766,0.3157 0.581703,0.58166 0.41607,0.34587 0.671845,0.47364 0.898285,0.44873 0.489186,-0.0538 0.452618,-0.42533 -0.112237,-1.14031 -0.275243,-0.3484 -0.500441,-0.7327 -0.500441,-0.854 0,-0.4207 0.820882,-1.9027 1.237116,-2.23347 0.465668,-0.37004 0.803711,-0.35532 1.415212,0.0616 0.347429,0.23689 0.366033,0.23798 0.526581,0.0306 0.193506,-0.24992 0.220528,-1.02623 0.04641,-1.33347 -0.06601,-0.11648 -0.403264,-0.38343 -0.749461,-0.59323 -0.60294,-0.36539 -1.112948,-1.032913 -1.112948,-1.456678 0,-0.378493 0.802022,-0.0997 1.387317,0.482195 0.454499,0.45187 0.740922,1.130383 0.831786,1.970393 l 0.07594,0.70207 0.221056,-0.30941 c 0.391691,-0.54823 0.398464,-1.05847 0.0241,-1.8152 -0.493558,-0.997658 -0.574372,-1.414261 -0.365795,-1.885703 0.221109,-0.499761 0.413921,-0.447351 0.768255,0.208811 0.481673,0.891978 0.253716,2.804602 -0.464272,3.895372 -0.204634,0.31088 -0.372062,0.58221 -0.372062,0.60295 0,0.0207 0.194467,0.0722 0.432149,0.11427 1.067665,0.18916 0.773031,1.20223 -0.635429,2.18486 -0.371265,0.25902 -0.927016,0.55915 -1.235002,0.66695 -0.324875,0.11371 -0.689343,0.35618 -0.868116,0.57753 -0.169478,0.20984 -0.414854,0.38153 -0.54528,0.38153 -0.130426,0 -0.296817,0.10531 -0.369758,0.23402 -0.07294,0.12871 -0.200879,0.23402 -0.284308,0.23402 -0.08343,0 -0.221329,0.10531 -0.306444,0.23403 -0.08512,0.12871 -0.234159,0.23402 -0.331208,0.23402 -0.09705,0 -0.211845,0.10531 -0.255103,0.23402 -0.04326,0.12872 -0.139909,0.23403 -0.214783,0.23403 -0.07487,0 -0.224444,0.0812 -0.332379,0.18039 -0.451174,0.41473 -1.558697,1.10674 -1.771279,1.10674 -0.126123,0 -0.261455,-0.0791 -0.300738,-0.17578 z m 0.327004,-0.17526 c 0,-0.0644 -0.05576,-0.11701 -0.123901,-0.11701 -0.06815,0 -0.123902,0.0526 -0.123902,0.11701 0,0.0644 0.05576,0.11701 0.123902,0.11701 0.06815,0 0.123901,-0.0526 0.123901,-0.11701 z m 0.526581,-0.0683 c 0.08814,-0.0832 -0.353634,-0.5168 -0.526581,-0.5168 -0.180166,0 -0.152289,0.12747 0.08115,0.37108 0.214549,0.22389 0.324552,0.25988 0.445427,0.14572 z m 0.507064,-0.36185 c 0.107362,-0.10139 -0.40694,-0.62299 -0.614276,-0.62299 -0.283991,0 -0.308897,0.22134 -0.05218,0.46377 0.255696,0.24148 0.514009,0.30319 0.66646,0.15922 z m 0.537883,-0.45329 c 0.0654,-0.18554 -0.690959,-0.66759 -0.918245,-0.58523 -0.164156,0.0595 -0.137577,0.13001 0.159321,0.42267 0.346808,0.34186 0.671228,0.41135 0.758924,0.16256 z m 0.492828,-0.35221 c 0.07999,-0.19686 -0.516982,-0.8706 -0.771401,-0.8706 -0.08113,0 -0.212136,0.0736 -0.291136,0.16345 -0.114686,0.1305 -0.04962,0.23663 0.322813,0.52655 0.529434,0.41214 0.635156,0.43795 0.739724,0.1806 z m 0.619802,-0.46877 c 0.04655,-0.11457 -0.08009,-0.33381 -0.337947,-0.58506 -0.438622,-0.42738 -0.564006,-0.46817 -0.859394,-0.2796 -0.154086,0.0984 -0.09312,0.19806 0.356663,0.58327 0.596029,0.51045 0.729457,0.55511 0.840678,0.28139 z m 0.612451,-0.56769 c 0.03945,-0.0971 -0.129161,-0.3384 -0.406568,-0.5819 -0.505965,-0.44411 -0.616417,-0.48167 -0.906735,-0.30834 -0.152622,0.0911 -0.09947,0.19313 0.303923,0.58327 0.50021,0.48378 0.889439,0.60215 1.00938,0.30697 z m 2.334235,-1.5333 c 0.750767,-0.41552 1.677987,-1.20754 1.816528,-1.55167 0.157112,-0.39026 -0.05733,-0.61055 -0.594337,-0.61055 -0.325654,0 -0.52184,-0.0952 -0.827808,-0.40155 -0.832933,-0.83405 -1.434722,-0.65392 -2.122156,0.63524 -0.503435,0.9441 -0.527286,1.17554 -0.176398,1.71172 0.470174,0.71845 0.907756,0.76827 1.904171,0.21681 z m -0.550888,-0.34554 c 0,-0.0305 0.153328,-0.13283 0.340729,-0.22734 0.187401,-0.0945 0.533559,-0.33062 0.769241,-0.52467 0.438975,-0.36143 0.666957,-0.4002 0.370654,-0.063 -0.36429,0.41454 -1.480624,1.02905 -1.480624,0.81504 z m 1.005645,-4.83351 c -0.185246,-0.326893 -0.774035,-0.844563 -0.96059,-0.844563 -0.278916,0 -0.193639,0.20292 0.268829,0.63967 0.473515,0.447183 0.900785,0.573733 0.691761,0.204893 z m 1.310009,-1.128078 c -0.158645,-0.746024 -0.399391,-0.969105 -0.527134,-0.488433 -0.0895,0.336763 0.405274,1.439041 0.573639,1.277988 0.05548,-0.0531 0.03455,-0.40837 -0.0465,-0.789555 z m -8.882426,7.805778 c -0.821594,-0.60192 -1.968158,-1.10857 -3.778992,-1.6699 -3.172598,-0.98344 -4.764593,-2.04101 -5.752654,-3.82153 -0.352268,-0.63479 -0.475662,-1.648353 -0.260422,-2.139096 0.258215,-0.588725 0.767597,-0.722346 2.848771,-0.747266 1.015484,-0.0122 1.776219,0.0149 1.690523,0.0601 -0.0857,0.0452 -0.865009,0.154391 -1.731805,0.242641 -1.892455,0.192683 -2.127453,0.329493 -2.113743,1.230581 0.0106,0.69655 0.567888,1.55422 1.623332,2.49829 1.049907,0.93912 1.866918,1.39393 3.634047,2.02296 1.921417,0.68396 3.1478,1.33166 3.915966,2.06819 0.325322,0.31192 0.566978,0.58882 0.537014,0.61533 -0.02997,0.0265 -0.305381,-0.13562 -0.612037,-0.36028 z m 3.876814,-3.63167 c -0.404578,-1.2257 -0.442277,-1.55724 -0.475655,-4.183168 -0.02587,-2.035038 -0.07461,-2.611446 -0.283697,-3.354621 -0.441666,-1.569866 -1.140642,-2.600233 -2.044157,-3.013296 -0.671751,-0.307107 -1.103469,-0.306963 -1.776199,5.91e-4 -0.745628,0.340881 -1.345477,1.037201 -2.208788,2.564013 -1.074179,1.899735 -1.863247,2.608567 -3.079062,2.765948 -0.642933,0.0832 -0.899544,-0.129861 -0.287067,-0.238371 0.606005,-0.10736 1.505593,-0.691052 1.947563,-1.26365 0.213505,-0.27661 0.781136,-1.134774 1.261401,-1.907048 1.408258,-2.264513 2.42867,-2.98222 3.745118,-2.634133 1.117742,0.295546 2.193535,1.512387 2.642899,2.9894 0.379124,1.246142 0.401244,1.433601 0.524178,4.442202 0.06818,1.668523 0.191546,3.140693 0.303974,3.627323 0.21876,0.94687 0.223069,0.99464 0.08971,0.99464 -0.05473,0 -0.216831,-0.35542 -0.36022,-0.78983 z"
       id="path1"
       inkscape:export-filename="path1.svg"
       inkscape:export-xdpi="26.233984"
       inkscape:export-ydpi="26.233984"
       sodipodi:nodetypes="cssssssssssscscssccssscsssscssscsssccccccsscssscsssssssssssssscsssssscsssssssssscsccssssssssssssssssssssscsssscsssssssssscsssssssssssssssssssssscssssssssssssssscssssssssss" /></g></svg>
